<svg width="740" height="700" viewBox="0 0 740 700" fill="none" xmlns="http://www.w3.org/2000/svg">
<mask id="mask0_1936_18168" style="mask-type:alpha" maskUnits="userSpaceOnUse" x="0" y="0" width="740" height="700">
<rect width="740" height="700" transform="matrix(1 0 0 -1 0 700)" fill="#C4C4C4"/>
</mask>
<g mask="url(#mask0_1936_18168)">
<path d="M81.0827 613.976C81.0827 613.976 61.569 512.752 61.517 491.939C61.4546 463.133 83.496 451.665 83.496 451.665L74.9353 427.241H122.003L114.566 451.499C114.566 451.499 139.374 464.653 135.911 494.53C129.441 550.382 119.143 613.935 119.143 613.935L81.0827 613.976Z" fill="#EFF0F7"/>
<path d="M305.147 686.888C302.515 685.726 299.659 685.158 296.783 685.224C293.907 685.291 291.08 685.99 288.504 687.273C288.367 682.013 286.902 676.873 284.248 672.331C281.593 667.789 277.834 663.992 273.32 661.292C268.805 658.593 263.682 657.079 258.426 656.891C253.171 656.702 247.952 657.846 243.257 660.216C241.67 655.877 239.151 651.939 235.877 648.681C232.603 645.423 228.654 642.923 224.309 641.359C219.964 639.795 215.329 639.204 210.73 639.628C206.132 640.053 201.683 641.482 197.697 643.815C193.739 639.148 188.488 635.758 182.607 634.075C176.725 632.391 170.477 632.489 164.65 634.355C158.914 636.426 153.916 640.147 150.285 645.049C146.655 649.952 144.552 655.818 144.242 661.912C140.234 660.898 136.032 660.94 132.045 662.034C128.058 663.128 124.423 665.237 121.493 668.156C115.72 674.036 108.075 692.091 110.353 700L315.903 699.584C315.151 696.807 313.798 694.231 311.939 692.037C310.08 689.842 307.762 688.084 305.147 686.888V686.888Z" fill="#EFF0F7"/>
<path d="M693.508 614.055C693.508 614.2 538.251 614.325 346.775 614.325C155.299 614.325 0 614.19 0 614.055C0 613.919 155.226 613.774 346.775 613.774C538.324 613.774 693.508 613.899 693.508 614.055Z" fill="#DCDDEB"/>
<path d="M55.9 521.825C50.9971 519.288 45.2191 518.96 39.7692 519.835C36.8454 520.323 33.8023 521.198 31.8133 523.397C29.8243 525.596 29.4464 529.466 31.7337 531.357C33.2117 532.355 34.9914 532.805 36.7659 532.63C41.0223 532.581 45.7164 531.824 49.1673 534.391C51.1065 535.864 52.3994 538.292 54.7265 539.018C55.8904 539.288 57.1105 539.171 58.2017 538.684C59.293 538.198 60.1958 537.368 60.7731 536.322C61.8861 534.174 62.1317 531.681 61.4593 529.357C61.1719 527.759 60.5211 526.249 59.5572 524.943C58.5932 523.637 57.3419 522.57 55.9 521.825Z" fill="#05C168"/>
<path d="M67.1476 500.115C64.1641 504.403 58.3065 502.981 55.6114 500.364C52.9163 497.747 51.7627 493.956 50.7185 490.305C48.3416 482.047 45.9449 473.391 47.735 464.954C48.1605 462.405 49.2787 460.023 50.9671 458.068C51.8223 457.105 52.9154 456.383 54.137 455.974C55.3586 455.565 56.6661 455.485 57.9286 455.74C60.9121 456.516 62.6922 459.402 64.0149 462.148C67.9093 470.238 69.948 479.097 69.9819 488.076C69.9819 492.255 69.5046 496.633 67.1575 500.085" fill="#05C168"/>
<path d="M75.382 506.225C72.13 502.354 71.5035 496.713 72.9554 491.867C74.4074 487.022 77.6793 482.913 81.4584 479.53C85.9038 475.589 91.0712 472.548 96.6742 470.575C98.846 469.704 101.179 469.307 103.516 469.411C104.685 469.48 105.82 469.834 106.821 470.44C107.823 471.047 108.662 471.889 109.265 472.894C110.866 475.948 109.334 479.659 107.673 482.684C104.742 488.01 101.401 493.1 97.6787 497.907C94.6952 501.777 91.2443 505.588 86.6795 507.329C82.1148 509.07 77.371 508.871 74.9444 505.707" fill="#05C168"/>
<path d="M67.3462 564.787C67.18 564.137 67.0898 563.469 67.0777 562.797C66.9385 561.385 66.7595 559.604 66.5606 557.484C66.2936 554.866 65.8953 552.262 65.3672 549.684C64.6636 546.547 63.7159 543.47 62.5329 540.481C61.3637 537.497 59.7801 534.694 57.8289 532.153C56.2354 530.07 54.1967 528.371 51.8619 527.178C50.2948 526.406 48.6173 525.882 46.8894 525.626C46.2188 525.599 45.5525 525.506 44.9004 525.347C45.561 525.268 46.2287 525.268 46.8894 525.347C48.6975 525.477 50.4668 525.936 52.1105 526.701C54.553 527.855 56.6969 529.558 58.3758 531.675C60.4105 534.251 62.0526 537.115 63.2489 540.172C64.4542 543.202 65.3926 546.331 66.0534 549.525C66.5452 552.135 66.8774 554.774 67.0479 557.425C67.2169 559.683 67.2766 561.514 67.3064 562.778C67.3985 563.444 67.4118 564.118 67.3462 564.787V564.787Z" fill="#211F54"/>
<path d="M66.9789 560.698C66.9445 560.397 66.9445 560.093 66.9789 559.793C66.9789 559.116 66.9789 558.26 66.9789 557.206C66.9789 554.967 66.9789 551.724 66.8596 547.714C66.6607 539.695 65.9745 531.058 64.6419 518.86C63.3788 507.418 61.6584 494.106 59.8981 485.45C59.5103 483.46 59.1224 481.709 58.7644 480.156C58.4064 478.604 58.118 477.261 57.8295 476.177C57.5411 475.092 57.392 474.326 57.2329 473.659C57.1436 473.372 57.0902 473.075 57.0737 472.774C57.2062 473.044 57.3096 473.328 57.382 473.62L58.1378 476.097C58.466 477.172 58.8141 478.505 59.202 480.077C59.5898 481.649 60.0274 483.39 60.455 485.36C62.6619 495.599 64.3217 505.948 65.4275 516.363C66.7601 528.551 67.4165 539.655 67.4165 547.694C67.4165 551.674 67.4165 554.967 67.2773 557.206C67.2176 558.26 67.1579 559.116 67.1182 559.793C67.1128 560.099 67.0659 560.404 66.9789 560.698V560.698Z" fill="#211F54"/>
<path d="M66.9287 539.286C66.8525 538.389 66.8525 537.487 66.9287 536.59C67.0282 534.849 67.2669 532.342 67.7542 529.267C68.3463 525.674 69.1399 522.116 70.131 518.611C71.2941 514.299 72.7835 510.081 74.5864 505.995C77.6771 498.465 82.1119 491.56 87.674 485.619C88.6357 484.598 89.6621 483.641 90.747 482.753C91.2243 482.355 91.642 481.957 92.0597 481.639L93.2631 480.813C93.9835 480.265 94.7486 479.78 95.5504 479.36C95.6797 479.539 92.3282 481.509 88.1016 486.007C82.7294 492.004 78.4148 498.87 75.3422 506.314C73.5734 510.378 72.0783 514.556 70.867 518.82C69.8435 522.29 68.9971 525.811 68.331 529.367C67.7741 532.411 67.4558 534.899 67.2569 536.61C67.2126 537.509 67.1029 538.403 66.9287 539.286Z" fill="#211F54"/>
<path d="M87.6144 577.055L85.4662 606.446H47.725L45.5769 577.055H87.6144Z" fill="#4B3CFB"/>
<path d="M91.2642 565.474H41.0818V577.055H91.2642V565.474Z" fill="#3F37A0"/>
<path d="M91.2542 605.322V608.535H88.8973H41.9072V605.322H91.2542Z" fill="#3F37A0"/>
<path d="M86.5901 614.187L88.8973 608.536H43.7073L46.4024 614.187H86.5901Z" fill="#4B3CFB"/>
<path d="M635.95 325.334C640.852 322.797 646.631 322.468 652.08 323.344C655.004 323.832 658.047 324.707 660.036 326.906C662.025 329.105 662.403 332.975 660.116 334.866C658.638 335.863 656.858 336.314 655.084 336.139C650.827 336.089 646.133 335.333 642.682 337.9C640.743 339.373 639.45 341.8 637.123 342.527C635.959 342.797 634.739 342.68 633.648 342.193C632.557 341.706 631.654 340.877 631.077 339.83C629.964 337.683 629.718 335.189 630.39 332.866C630.678 331.268 631.328 329.758 632.292 328.452C633.256 327.146 634.508 326.079 635.95 325.334Z" fill="#05C168"/>
<path d="M624.702 303.624C627.685 307.912 633.543 306.489 636.238 303.873C638.933 301.256 640.086 297.465 641.131 293.814C643.507 285.556 645.904 276.9 644.114 268.462C643.689 265.914 642.57 263.532 640.882 261.577C640.027 260.614 638.934 259.891 637.712 259.483C636.49 259.074 635.183 258.994 633.921 259.249C630.937 260.025 629.157 262.91 627.834 265.657C623.94 273.747 621.901 282.605 621.867 291.585C621.867 295.764 622.345 300.142 624.692 303.594" fill="#05C168"/>
<path d="M616.468 309.733C619.72 305.863 620.346 300.222 618.894 295.376C617.442 290.531 614.171 286.422 610.391 283.039C605.946 279.098 600.779 276.057 595.176 274.084C593.004 273.213 590.671 272.816 588.333 272.92C587.165 272.989 586.03 273.342 585.028 273.949C584.027 274.556 583.188 275.398 582.585 276.402C580.984 279.457 582.516 283.168 584.176 286.193C587.108 291.519 590.449 296.609 594.171 301.416C597.155 305.286 600.606 309.097 605.17 310.838C609.735 312.579 614.479 312.38 616.905 309.216" fill="#05C168"/>
<path d="M624.503 368.296C624.67 367.645 624.76 366.978 624.772 366.306C624.911 364.893 625.09 363.112 625.289 360.993C625.556 358.375 625.954 355.771 626.482 353.193C627.186 350.056 628.134 346.979 629.317 343.989C630.486 341.006 632.07 338.203 634.021 335.662C635.614 333.579 637.653 331.879 639.988 330.687C641.555 329.915 643.232 329.391 644.96 329.135C645.631 329.108 646.297 329.015 646.949 328.856C646.289 328.777 645.621 328.777 644.96 328.856C643.152 328.986 641.383 329.445 639.739 330.209C637.297 331.364 635.153 333.067 633.474 335.184C631.439 337.76 629.797 340.624 628.601 343.681C627.395 346.711 626.457 349.84 625.796 353.034C625.304 355.644 624.972 358.282 624.802 360.933C624.633 363.192 624.573 365.023 624.543 366.286C624.451 366.952 624.438 367.627 624.503 368.296V368.296Z" fill="#211F54"/>
<path d="M624.871 364.206C624.905 363.906 624.905 363.602 624.871 363.301C624.871 362.624 624.871 361.769 624.871 360.714C624.871 358.475 624.871 355.232 624.99 351.222C625.189 343.203 625.875 334.567 627.208 322.369C628.471 310.927 630.191 297.614 631.952 288.958C632.339 286.968 632.727 285.217 633.085 283.665C633.443 282.113 633.732 280.769 634.02 279.685C634.308 278.6 634.458 277.834 634.617 277.168C634.706 276.88 634.759 276.583 634.776 276.282C634.643 276.552 634.54 276.836 634.468 277.128L633.712 279.605C633.384 280.68 633.036 282.013 632.648 283.585C632.26 285.157 631.822 286.898 631.395 288.868C629.188 299.107 627.528 309.456 626.422 319.871C625.089 332.059 624.433 343.163 624.433 351.202C624.433 355.182 624.433 358.475 624.572 360.714C624.632 361.769 624.692 362.624 624.731 363.301C624.737 363.608 624.784 363.912 624.871 364.206V364.206Z" fill="#211F54"/>
<path d="M624.921 342.796C624.998 341.899 624.998 340.997 624.921 340.099C624.822 338.358 624.583 335.851 624.096 332.777C623.504 329.183 622.71 325.625 621.719 322.121C620.556 317.808 619.067 313.591 617.264 309.505C614.173 301.974 609.738 295.07 604.176 289.128C603.214 288.108 602.188 287.15 601.103 286.262C600.626 285.864 600.208 285.466 599.79 285.148L598.587 284.322C597.867 283.775 597.101 283.289 596.3 282.87C596.17 283.049 599.522 285.019 603.748 289.516C609.121 295.513 613.435 302.38 616.508 309.823C618.277 313.887 619.772 318.066 620.983 322.33C622.007 325.8 622.853 329.32 623.519 332.876C624.076 335.921 624.394 338.408 624.593 340.119C624.637 341.018 624.747 341.913 624.921 342.796Z" fill="#211F54"/>
<path d="M598.515 518.135H584.771V572.811H598.515V518.135Z" fill="#EFF0F7"/>
<path d="M689.915 518.135H676.171V572.811H689.915V518.135Z" fill="#DCDDEB"/>
<path d="M778.054 392.115H584.58V518.035H778.054V392.115Z" fill="#EFF0F7"/>
<path d="M754.538 455.1C754.523 454.863 754.523 454.625 754.538 454.388C754.538 453.887 754.538 453.213 754.538 452.346C754.538 450.517 754.538 447.878 754.538 444.469C754.538 437.594 754.442 427.618 754.384 415.003L754.692 415.311L603.791 415.504L604.291 415.003V420.107C604.291 421.821 604.291 423.516 604.291 425.23V455.062L603.791 454.561L711.437 454.792L743.142 454.927H751.689H753.922H754.711H753.98H751.824H743.373L711.784 455.081L603.791 455.293H603.31V435.379C603.31 432.028 603.31 428.658 603.31 425.268V415.042L603.829 414.541L754.731 414.734H754.769V415.042C754.769 427.733 754.654 437.767 754.615 444.681C754.615 448.071 754.615 450.671 754.615 452.5C754.615 453.348 754.615 454.002 754.615 454.426C754.615 454.85 754.538 455.1 754.538 455.1Z" fill="#DCDDEB"/>
<path d="M685.679 435.052C685.679 436.359 685.291 437.636 684.566 438.722C683.84 439.808 682.809 440.655 681.603 441.155C680.396 441.655 679.069 441.786 677.788 441.531C676.507 441.276 675.33 440.647 674.407 439.723C673.484 438.799 672.855 437.622 672.6 436.341C672.345 435.059 672.476 433.731 672.976 432.524C673.476 431.317 674.322 430.285 675.408 429.56C676.493 428.834 677.77 428.446 679.076 428.446C680.827 428.446 682.507 429.142 683.745 430.381C684.983 431.62 685.679 433.3 685.679 435.052V435.052Z" fill="#DCDDEB"/>
<path d="M612.857 345.017L620.249 355.648C620.249 355.648 603.617 360.27 603.617 375.042C603.617 389.813 613.781 392.587 624.792 392.587C635.803 392.587 646.487 389.351 645.967 374.58C645.448 359.808 631.645 354.261 631.645 354.261L638.575 345.017H612.857Z" fill="#0075FF"/>
<path d="M538.436 73.3616C538.87 72.9455 541.854 75.0804 545.76 79.4951C548.04 82.0893 550.12 84.8534 551.981 87.7635C554.259 91.3383 556.26 95.0824 557.967 98.963C559.627 102.866 560.993 106.888 562.054 110.995C562.909 114.347 563.513 117.758 563.862 121.199C564.405 127.079 563.863 130.716 563.32 130.752C561.909 130.752 560.625 116.622 553.681 100.845C546.736 85.0677 537.387 74.3205 538.436 73.3616Z" fill="#05C168"/>
<path d="M567.931 142.495C567.317 142.495 565.635 134.805 564.061 122.05C562.488 109.294 561.168 91.5814 560.661 72.0049C560.155 52.4285 560.354 34.7336 560.661 21.9239C560.969 9.11413 561.656 1.18945 562.307 1.18945C562.958 1.18945 563.537 9.11412 563.989 21.9058C564.441 34.6974 564.767 52.3923 565.291 71.8783C565.816 91.3643 566.575 108.987 567.317 121.742C568.058 134.498 568.619 142.495 567.931 142.495Z" fill="#05C168"/>
<path d="M596.469 31.3142C597.084 31.658 594.661 37.1039 591.387 46.1865C588.114 55.2692 584.045 67.898 580.066 82.119C576.088 96.34 573.086 109.258 571.241 118.775C569.397 128.292 568.637 134.154 567.932 134.136C567.226 134.118 566.847 128.002 567.932 118.269C569.495 105.627 572.028 93.1236 575.509 80.8706C578.845 68.5773 583.119 56.5584 588.295 44.92C592.4 36.0003 595.963 31.0066 596.469 31.3142Z" fill="#05C168"/>
<path d="M531.201 126.211V141.789C531.197 146.157 532.052 150.482 533.72 154.519C535.387 158.556 537.834 162.224 540.919 165.314C544.004 168.404 547.668 170.856 551.701 172.528C555.734 174.201 560.057 175.062 564.423 175.062C568.787 175.064 573.109 174.206 577.142 172.537C581.174 170.868 584.839 168.42 587.926 165.333C591.012 162.247 593.461 158.582 595.132 154.548C596.802 150.515 597.662 146.191 597.662 141.825V126.211H531.201Z" fill="#6E7191"/>
<path d="M793.464 175.098H486.804V192.847H793.464V175.098Z" fill="#EFF0F7"/>
<path d="M555.054 192.847H544.945V223.568H555.054V192.847Z" fill="#DCDDEB"/>
<path d="M723.277 192.847H713.167V223.568H723.277V192.847Z" fill="#DCDDEB"/>
<path d="M821.548 365.04V392.099H705.22C701.646 392.099 698.218 390.678 695.691 388.15C693.164 385.622 691.745 382.193 691.745 378.618V378.618C691.745 375.042 693.164 371.613 695.691 369.085C698.218 366.557 701.646 365.136 705.22 365.136" fill="#3F37A0"/>
<path d="M821.548 339.041V366.1H705.22C701.646 366.1 698.218 364.679 695.691 362.151C693.164 359.623 691.745 356.194 691.745 352.619V352.619C691.745 349.043 693.164 345.614 695.691 343.086C698.218 340.558 701.646 339.137 705.22 339.137L821.548 339.041Z" fill="#4B3CFB"/>
<path d="M662.043 111.158L655.099 175.641H744.093L751.489 111.158H662.043Z" fill="#DCDDEB"/>
<path d="M665.696 115.79L658.932 172.222H739.264L745.775 115.79H665.696Z" fill="white"/>
<path d="M679.224 125.27L675.064 162.722H725.755L728.359 125.27H679.224Z" fill="#4B3CFB"/>
<g filter="url(#filter0_d_1936_18168)">
<path d="M566.678 562.321L577.781 614.439H563.539L539.693 561.444L566.678 562.321Z" fill="#6E7191"/>
<path d="M566.678 562.322H566.15H564.736L559.326 562.19L539.655 561.652L539.834 561.388L560.127 606.34C561.34 609.055 562.543 611.73 563.737 614.364L563.511 614.213H577.753L577.526 614.496C574.35 599.409 571.617 586.377 569.666 577.126C568.723 572.506 567.95 568.828 567.422 566.273C567.168 565.019 566.97 564.047 566.838 563.359C566.772 563.038 566.725 562.793 566.687 562.595C566.679 562.507 566.679 562.419 566.687 562.331C566.715 562.408 566.738 562.487 566.753 562.567L566.923 563.293C567.074 563.972 567.29 564.924 567.564 566.122L569.92 576.928C571.928 586.207 574.736 599.248 578.007 614.393L578.073 614.675H563.379L563.322 614.534L559.703 606.509C551.974 589.262 544.896 573.505 539.523 561.511L539.401 561.237H539.693L559.486 561.973L564.859 562.199L566.244 562.265C566.39 562.274 566.535 562.293 566.678 562.322V562.322Z" fill="#6E7191"/>
<path d="M172.989 562.321L161.886 614.439H176.118L199.974 561.444L172.989 562.321Z" fill="#6E7191"/>
<path d="M172.989 562.322C173.142 562.31 173.297 562.31 173.45 562.322L174.836 562.256L180.199 562.029L199.992 561.294H200.294L200.171 561.567L179.982 606.566C178.763 609.282 177.56 611.957 176.372 614.591L176.306 614.732H161.593L161.65 614.449C164.92 599.305 167.739 586.264 169.737 576.985C170.745 572.402 171.546 568.743 172.103 566.207C172.385 564.972 172.593 564.019 172.743 563.378L172.923 562.652C172.923 562.492 172.979 562.407 172.989 562.416C172.978 562.505 172.962 562.593 172.941 562.68C172.941 562.878 172.857 563.123 172.8 563.444C172.659 564.132 172.461 565.104 172.216 566.358C171.688 568.913 170.924 572.591 169.963 577.211C168.021 586.462 165.25 599.475 162.112 614.581L161.885 614.298H176.118L175.901 614.449C177.082 611.815 178.286 609.14 179.511 606.425L199.804 561.473L199.973 561.737L180.303 562.275L174.902 562.407H173.479L172.989 562.322Z" fill="#6E7191"/>
<path d="M597.273 510.27H175.204V577.881H597.273V510.27Z" fill="#CBCDDC"/>
<path d="M380.554 456.162V379.97C380.552 378.632 380.813 377.307 381.323 376.07C381.833 374.834 382.582 373.71 383.526 372.763C384.471 371.816 385.593 371.065 386.828 370.553C388.063 370.04 389.387 369.776 390.724 369.776H568.534C571.229 369.776 573.813 370.847 575.719 372.754C577.624 374.66 578.695 377.246 578.695 379.942V485.818L380.29 491.476L380.554 456.162Z" fill="#CBCDDC"/>
<path d="M181.5 456.162V379.97C181.501 378.629 181.767 377.302 182.281 376.064C182.795 374.826 183.548 373.701 184.497 372.755C185.446 371.808 186.572 371.058 187.811 370.547C189.05 370.036 190.377 369.774 191.717 369.776H370.347C373.048 369.771 375.64 370.839 377.554 372.745C379.468 374.651 380.547 377.24 380.555 379.942L380.291 491.438L181.5 485.781V456.162Z" fill="#CBCDDC"/>
<path d="M623.532 577.154H577.932C573.672 577.154 570.222 572.628 570.222 567.045V446.666C570.222 441.083 573.672 436.557 578.054 436.557H623.645C627.783 436.557 631.185 441.083 631.185 446.666V567.045C631.242 572.628 627.792 577.154 623.532 577.154Z" fill="#CBCDDC"/>
<path d="M623.532 577.154C623.532 577.154 623.871 577.154 624.475 577.032C625.441 576.86 626.354 576.466 627.142 575.881C628.406 574.916 629.402 573.644 630.036 572.185C630.452 571.262 630.746 570.289 630.912 569.29C631.078 568.148 631.141 566.992 631.101 565.839C631.101 556.013 631.053 541.802 631.016 524.244C630.978 506.686 631.016 485.771 631.016 462.546C631.016 459.641 631.016 456.706 631.016 453.738V449.25C631.068 447.752 631.021 446.253 630.874 444.761C630.658 443.275 630.158 441.844 629.404 440.546C628.661 439.235 627.563 438.159 626.237 437.444C625.578 437.092 624.852 436.883 624.107 436.831C623.362 436.765 622.552 436.831 621.779 436.831H577.97C576.337 436.894 574.787 437.567 573.625 438.717C572.459 439.851 571.589 441.252 571.089 442.8C570.609 444.356 570.399 445.982 570.467 447.609V471.796C570.467 484.432 570.467 496.625 570.467 508.233C570.467 519.841 570.467 530.864 570.467 541.237C570.467 546.392 570.467 551.374 570.467 556.183V563.227C570.467 564.368 570.467 565.509 570.467 566.631C570.438 567.73 570.539 568.828 570.769 569.903C571.18 571.984 572.224 573.887 573.756 575.353C574.502 576.037 575.391 576.546 576.358 576.843C577.321 577.067 578.312 577.149 579.299 577.088H590.468H608.376L619.686 577.136H622.627H623.626H622.627H619.686H608.376H590.468H579.299C578.283 577.204 577.263 577.118 576.273 576.881C575.255 576.583 574.32 576.054 573.54 575.334C571.943 573.816 570.856 571.839 570.429 569.677C570.195 568.577 570.087 567.454 570.109 566.329V562.925C570.109 560.624 570.109 558.276 570.109 555.881C570.109 551.084 570.109 546.102 570.109 540.935C570.109 530.562 570.109 519.577 570.109 507.931C570.109 496.285 570.109 484.13 570.109 471.494C570.109 465.208 570.109 458.783 570.109 452.22V447.307C570.044 445.629 570.264 443.952 570.759 442.347C571.281 440.719 572.198 439.245 573.427 438.057C574.682 436.841 576.346 436.138 578.092 436.086H621.76C622.552 436.086 623.306 436.086 624.126 436.086C624.933 436.151 625.718 436.378 626.435 436.755C627.84 437.512 629.003 438.649 629.79 440.037C630.577 441.386 631.096 442.875 631.317 444.422C631.466 445.938 631.516 447.463 631.468 448.986C631.468 450.485 631.468 451.984 631.468 453.474V462.282C631.468 485.507 631.468 506.413 631.412 523.98C631.355 541.548 631.355 555.749 631.336 565.575C631.372 566.739 631.3 567.904 631.119 569.054C630.938 570.067 630.621 571.05 630.177 571.977C629.533 573.472 628.51 574.773 627.208 575.749C626.404 576.33 625.474 576.712 624.493 576.862C624.182 576.988 623.86 577.086 623.532 577.154V577.154Z" fill="#6E7191"/>
<path d="M565.292 484.441H388.019C383.543 484.441 379.914 488.072 379.914 492.551V515.399C379.914 519.878 383.543 523.509 388.019 523.509H565.292C569.769 523.509 573.398 519.878 573.398 515.399V492.551C573.398 488.072 569.769 484.441 565.292 484.441Z" fill="#CBCDDC"/>
<path d="M565.292 523.481C565.292 523.481 565.688 523.481 566.442 523.358C567.918 523.132 569.302 522.501 570.442 521.536C571.582 520.57 572.432 519.308 572.898 517.889C573.238 516.762 573.372 515.584 573.294 514.409C573.294 513.146 573.294 511.797 573.294 510.373C573.294 507.545 573.294 504.338 573.294 500.868C573.294 499.133 573.294 497.313 573.294 495.437C573.294 493.56 573.52 491.542 572.757 489.694C572.01 487.755 570.535 486.185 568.648 485.319C566.715 484.376 564.425 484.649 562.135 484.602H547.572L388.01 484.743C386.121 484.746 384.296 485.433 382.873 486.677C381.453 487.904 380.529 489.607 380.272 491.467C380.187 492.407 380.158 493.352 380.187 494.296V514.174C380.146 515.085 380.196 515.998 380.338 516.899C380.508 517.776 380.827 518.618 381.28 519.388C382.191 520.937 383.615 522.118 385.305 522.726C386.954 523.386 388.802 523.17 390.621 523.207H427.483L499.192 523.264L547.525 523.368L560.721 523.424H564.133H565.301H564.133H560.721L547.525 523.481L499.192 523.575L427.483 523.641H387.897C386.46 523.626 385.05 523.242 383.804 522.525C382.558 521.808 381.517 520.783 380.781 519.549C380.288 518.72 379.938 517.815 379.744 516.87C379.598 515.935 379.545 514.988 379.584 514.042V494.305C379.55 493.33 379.581 492.353 379.678 491.382C379.958 489.375 380.964 487.54 382.506 486.224C384.042 484.891 386.005 484.155 388.038 484.149L547.525 484.234H562.087H565.481C566.609 484.253 567.72 484.51 568.742 484.989C570.183 485.653 571.404 486.716 572.259 488.053C573.115 489.39 573.569 490.945 573.568 492.532C573.568 493.475 573.568 494.475 573.568 495.418C573.568 497.304 573.568 499.114 573.568 500.849C573.568 504.32 573.568 507.497 573.568 510.355C573.568 511.778 573.568 513.127 573.568 514.39C573.637 515.586 573.49 516.784 573.134 517.927C572.533 519.716 571.331 521.243 569.731 522.245C568.757 522.86 567.66 523.253 566.517 523.396C566.113 523.469 565.702 523.497 565.292 523.481V523.481Z" fill="#6E7191"/>
<path d="M174.13 577.88H128.53C124.279 577.88 120.82 573.354 120.82 567.772V447.402C120.82 441.819 124.279 437.293 128.662 437.293H174.252C178.39 437.293 181.792 441.819 181.792 447.402V567.8C181.84 573.354 178.39 577.88 174.13 577.88Z" fill="#CBCDDC"/>
<path d="M174.129 577.881C174.129 577.881 174.469 577.881 175.072 577.768C176.035 577.587 176.946 577.194 177.739 576.617C179.006 575.655 180.002 574.382 180.633 572.921C181.048 571.997 181.342 571.024 181.509 570.026C181.675 568.883 181.739 567.728 181.698 566.575C181.698 556.739 181.698 542.529 181.622 524.98C181.547 507.431 181.622 486.497 181.566 463.281C181.566 460.377 181.566 457.438 181.566 454.465V449.986C181.618 448.485 181.571 446.982 181.424 445.488C181.206 444.005 180.707 442.578 179.954 441.282C179.216 439.966 178.117 438.89 176.787 438.18C176.127 437.829 175.402 437.618 174.657 437.557C173.912 437.501 173.102 437.557 172.329 437.557H167.616H128.529C126.902 437.604 125.351 438.26 124.184 439.396C123.019 440.53 122.148 441.932 121.649 443.479C121.167 445.031 120.957 446.655 121.027 448.279V472.466C121.027 485.111 121.027 497.294 121.027 508.912C121.027 520.529 121.027 531.543 121.027 541.916C121.027 547.074 121.027 552.062 121.027 556.852V563.896C121.027 565.047 121.027 566.178 121.027 567.31C120.998 568.409 121.1 569.507 121.328 570.582C121.744 572.662 122.787 574.564 124.316 576.033C125.062 576.714 125.951 577.219 126.917 577.513C127.88 577.744 128.871 577.83 129.858 577.768H141.027H158.936L170.246 577.815H173.187H174.186H173.187H170.246L158.936 577.862H141.027H129.858C128.843 577.926 127.823 577.84 126.833 577.607C125.837 577.369 124.905 576.919 124.099 576.287C122.504 574.767 121.418 572.791 120.989 570.629C120.753 569.53 120.649 568.406 120.678 567.282C120.678 566.15 120.678 565.019 120.678 563.868C120.678 561.567 120.678 559.219 120.678 556.824C120.678 552.034 120.678 547.046 120.678 541.888C120.678 531.515 120.678 520.52 120.678 508.884C120.678 497.247 120.678 485.083 120.678 472.438C120.678 466.151 120.678 459.726 120.678 453.163V448.251C120.598 446.588 120.798 444.924 121.272 443.328C121.794 441.7 122.71 440.226 123.939 439.038C125.203 437.806 126.888 437.101 128.652 437.067H172.461C173.253 437.067 174.007 437.067 174.827 437.067C175.635 437.127 176.421 437.355 177.136 437.736C178.544 438.489 179.708 439.627 180.491 441.018C181.278 442.367 181.797 443.856 182.018 445.403C182.167 446.919 182.217 448.444 182.169 449.967V463.263C182.169 486.479 182.169 507.394 182.113 524.961C182.056 542.529 182.056 556.72 182.037 566.556C182.073 567.72 182 568.885 181.82 570.035C181.642 571.048 181.325 572.032 180.878 572.958C180.23 574.435 179.206 575.716 177.909 576.674C177.105 577.257 176.175 577.641 175.194 577.796C174.842 577.855 174.486 577.884 174.129 577.881V577.881Z" fill="#6E7191"/>
<path d="M371.808 484.008H183.611C179.135 484.008 175.506 487.639 175.506 492.117V515.833C175.506 520.312 179.135 523.943 183.611 523.943H371.808C376.285 523.943 379.914 520.312 379.914 515.833V492.117C379.914 487.639 376.285 484.008 371.808 484.008Z" fill="#CBCDDC"/>
<path d="M371.808 523.943C371.808 523.943 372.223 523.943 373.024 523.811C374.574 523.558 376.017 522.857 377.173 521.792C378.329 520.728 379.147 519.348 379.527 517.823C379.774 516.607 379.86 515.364 379.782 514.126C379.782 512.797 379.782 511.382 379.782 509.883C379.782 506.875 379.782 503.537 379.782 499.878C379.782 498.049 379.782 496.106 379.782 494.164C379.782 493.173 379.782 492.146 379.716 491.146C379.598 490.125 379.277 489.137 378.773 488.242C378.246 487.296 377.531 486.468 376.672 485.81C375.813 485.151 374.828 484.676 373.778 484.413C372.659 484.183 371.515 484.101 370.375 484.168H366.793H351.477L183.649 484.262C181.666 484.261 179.757 485.014 178.309 486.37C176.861 487.725 175.983 489.581 175.854 491.561C175.854 495.578 175.854 499.623 175.854 503.612C175.854 507.601 175.854 511.561 175.854 515.494C175.801 517.401 176.433 519.265 177.635 520.746C178.826 522.196 180.499 523.17 182.348 523.49C183.286 523.603 184.232 523.641 185.176 523.603H226.836L302.286 523.669L353.183 523.763L367.01 523.82H370.611H371.836H370.611H367.01L353.183 523.867L302.286 523.971L226.836 524.027H185.166C184.187 524.07 183.207 524.029 182.235 523.905C180.223 523.574 178.401 522.521 177.109 520.944C175.816 519.366 175.142 517.372 175.213 515.333C175.213 511.404 175.213 507.444 175.213 503.452C175.213 499.444 175.213 495.455 175.213 491.363C175.356 489.233 176.302 487.237 177.859 485.777C179.416 484.318 181.468 483.503 183.602 483.499L351.43 483.593H366.746H370.328C371.497 483.533 372.67 483.624 373.815 483.866C374.909 484.146 375.935 484.645 376.829 485.334C377.724 486.023 378.468 486.887 379.018 487.874C379.529 488.814 379.849 489.846 379.961 490.91C380.064 491.966 380.008 492.966 380.017 493.966C380.017 495.946 380.017 497.851 380.017 499.68C380.017 503.339 380.017 506.674 380.017 509.685C380.017 511.184 380.017 512.599 380.017 513.928C380.091 515.193 379.993 516.462 379.725 517.7C379.328 519.249 378.48 520.645 377.289 521.711C376.097 522.777 374.616 523.465 373.033 523.688C372.721 523.732 372.406 523.755 372.091 523.754L371.808 523.943Z" fill="#6E7191"/>
<path d="M380.554 379.111C380.724 379.111 380.856 403.487 380.856 433.549C380.856 463.611 380.724 487.987 380.554 487.987C380.385 487.987 380.262 463.62 380.262 433.549C380.262 403.478 380.394 379.111 380.554 379.111Z" fill="#6E7191"/>
<path d="M482.122 413.568C482.122 413.568 481.943 413.823 481.707 414.294C481.4 414.963 481.295 415.707 481.406 416.435C481.471 416.963 481.651 417.47 481.932 417.921C482.214 418.372 482.591 418.757 483.036 419.047C483.61 419.312 484.246 419.413 484.873 419.34C485.501 419.267 486.096 419.022 486.593 418.632C487.09 418.242 487.47 417.722 487.691 417.129C487.911 416.537 487.964 415.895 487.843 415.275C487.667 414.774 487.381 414.318 487.008 413.94C486.635 413.562 486.183 413.27 485.685 413.087C485.002 412.806 484.25 412.737 483.526 412.889C483.018 413.002 482.754 413.163 482.725 413.115C482.921 412.896 483.177 412.739 483.461 412.663C484.228 412.405 485.059 412.405 485.826 412.663C486.407 412.849 486.938 413.165 487.379 413.586C487.82 414.008 488.159 414.524 488.371 415.096C488.615 415.795 488.615 416.556 488.371 417.255C488.1 417.987 487.633 418.63 487.022 419.114C486.41 419.598 485.677 419.904 484.903 419.999C484.166 420.084 483.422 419.918 482.791 419.528C482.284 419.19 481.861 418.741 481.554 418.215C481.247 417.688 481.064 417.099 481.019 416.491C480.936 415.687 481.122 414.878 481.547 414.19C481.82 413.709 482.103 413.549 482.122 413.568Z" fill="#6E7191"/>
<path d="M500.172 399.367C500.172 399.471 498.966 399.489 497.118 400.017C494.71 400.683 492.511 401.949 490.725 403.698C488.94 405.446 487.627 407.619 486.91 410.013C486.345 411.899 486.288 413.059 486.185 413.049C486.127 412.769 486.127 412.481 486.185 412.201C486.223 411.423 486.343 410.652 486.543 409.9C487.172 407.38 488.488 405.085 490.343 403.269C492.198 401.453 494.521 400.187 497.052 399.612C497.807 399.433 498.577 399.328 499.352 399.301C499.627 399.27 499.906 399.292 500.172 399.367V399.367Z" fill="#6E7191"/>
<path d="M458.427 419.462C458.569 419.168 458.761 418.9 458.993 418.67C459.576 417.995 460.226 417.382 460.934 416.84C463.282 415.02 466.108 413.922 469.069 413.681C472.03 413.44 474.996 414.066 477.608 415.482C478.39 415.887 479.129 416.37 479.813 416.925C480.294 417.34 480.53 417.595 480.501 417.623C480.473 417.651 479.399 416.784 477.41 415.822C474.838 414.551 471.969 414.003 469.11 414.238C466.252 414.472 463.51 415.479 461.179 417.151C459.379 418.453 458.512 419.537 458.427 419.462Z" fill="#6E7191"/>
<path d="M486.486 429.334C486.42 429.334 485.949 428.872 485.299 427.957C484.386 426.765 483.78 425.366 483.536 423.884C483.432 423.122 483.506 422.346 483.753 421.618C484 420.89 484.413 420.229 484.959 419.688C485.902 418.886 486.675 418.905 486.665 418.962C486.656 419.018 485.977 419.197 485.261 419.989C484.821 420.514 484.495 421.124 484.303 421.782C484.112 422.439 484.059 423.129 484.149 423.808C484.399 425.203 484.917 426.535 485.676 427.731C486.022 428.224 486.295 428.764 486.486 429.334V429.334Z" fill="#6E7191"/>
</g>
<path d="M579.471 599.113L596.949 651.503L528.074 674.638C526.366 668.289 557.772 643.836 557.772 643.836L545.148 610.761L579.471 599.113Z" fill="#A0A3BD"/>
<g opacity="0.6">
<path opacity="0.6" d="M596.91 651.572L594.974 646.312L529.634 670.402C529.634 670.402 526.945 672.689 528.034 674.612L596.91 651.572Z" fill="white"/>
</g>
<path d="M553.538 627.75C554.767 627.668 555.954 627.265 556.979 626.58C558.15 625.959 559.242 625.201 560.233 624.32C560.817 623.803 561.369 623.251 561.887 622.666C562.199 622.333 562.461 621.957 562.666 621.55C562.811 621.255 562.848 620.919 562.772 620.6C562.696 620.281 562.511 619.999 562.25 619.801C561.999 619.635 561.713 619.529 561.415 619.489C561.117 619.449 560.814 619.478 560.529 619.572C560.091 619.717 559.675 619.92 559.292 620.178C558.617 620.569 557.978 621.019 557.383 621.523C556.394 622.401 555.546 623.427 554.869 624.562C553.739 626.499 553.605 627.871 553.739 627.898C553.874 627.925 554.371 626.688 555.595 624.993C556.322 623.994 557.171 623.09 558.122 622.303C558.685 621.844 559.283 621.431 559.91 621.065C560.569 620.635 561.187 620.42 561.483 620.662C561.779 620.904 561.618 620.81 561.483 621.052C561.329 621.35 561.134 621.626 560.905 621.872C560.439 622.434 559.94 622.968 559.413 623.473C558.509 624.337 557.528 625.116 556.482 625.8C555.462 626.39 554.479 627.041 553.538 627.75V627.75Z" fill="#263238"/>
<path d="M554.129 628.059C554.467 626.927 554.415 625.715 553.981 624.616C553.629 623.386 553.06 622.23 552.301 621.2C551.839 620.588 551.317 620.025 550.741 619.518C550.397 619.145 549.963 618.866 549.481 618.709C548.998 618.551 548.483 618.519 547.985 618.617C547.692 618.717 547.432 618.895 547.233 619.132C547.034 619.369 546.903 619.656 546.856 619.962C546.783 620.408 546.783 620.862 546.856 621.307C546.986 622.072 547.235 622.812 547.595 623.5C548.21 624.663 549.107 625.653 550.204 626.378C551.177 627.148 552.409 627.514 553.645 627.4C553.712 627.199 552.301 626.983 550.755 625.706C549.852 624.978 549.122 624.059 548.617 623.015C548.337 622.41 548.146 621.766 548.052 621.106C547.918 620.379 548.052 619.76 548.308 619.76C548.6 619.752 548.89 619.806 549.16 619.92C549.429 620.033 549.67 620.204 549.867 620.42C550.395 620.868 550.881 621.363 551.319 621.899C552.055 622.816 552.653 623.836 553.094 624.925C553.887 626.768 553.928 628.073 554.129 628.059Z" fill="#263238"/>
<path d="M441.035 611.218L444.181 665.8L371.582 666.755C371.905 660.192 409.226 646.58 409.226 646.58L407.331 611.218L441.035 611.218Z" fill="#A0A3BD"/>
<g opacity="0.6">
<path opacity="0.6" d="M444.182 665.856L443.899 660.301L374.352 663.287C374.352 663.287 371.139 664.632 371.542 666.811L444.182 665.856Z" fill="white"/>
</g>
<path d="M408.567 638.121C408.715 638.417 410.342 637.932 412.345 638.04C414.349 638.148 415.921 638.713 416.096 638.43C416.271 638.148 414.752 636.964 412.399 636.869C410.046 636.775 408.379 637.879 408.567 638.121Z" fill="#263238"/>
<path d="M410.167 629.969C411.363 630.254 412.612 630.231 413.797 629.902C415.101 629.662 416.373 629.273 417.589 628.745C418.303 628.435 418.994 628.075 419.659 627.669C420.063 627.456 420.431 627.179 420.748 626.849C420.986 626.619 421.132 626.31 421.157 625.98C421.182 625.65 421.084 625.322 420.882 625.06C420.694 624.825 420.454 624.636 420.182 624.508C419.909 624.379 419.611 624.315 419.309 624.32C418.855 624.322 418.402 624.385 417.965 624.508C417.195 624.697 416.444 624.953 415.72 625.275C414.509 625.807 413.389 626.524 412.399 627.4C410.732 628.893 410.181 630.158 410.302 630.225C410.423 630.292 411.27 629.27 412.991 628.032C413.982 627.307 415.062 626.711 416.204 626.257C416.88 625.99 417.577 625.779 418.288 625.625C419.054 625.423 419.632 625.41 419.914 625.732C419.982 625.853 419.995 625.894 419.834 626.109C419.601 626.349 419.333 626.553 419.041 626.714C418.423 627.101 417.786 627.456 417.131 627.777C416.011 628.334 414.841 628.785 413.636 629.122C412.461 629.319 411.301 629.602 410.167 629.969V629.969Z" fill="#263238"/>
<path d="M410.638 630.44C411.303 629.46 411.62 628.286 411.539 627.104C411.579 625.831 411.392 624.56 410.988 623.352C410.738 622.625 410.414 621.926 410.02 621.267C409.807 620.807 409.48 620.409 409.071 620.11C408.662 619.811 408.183 619.621 407.681 619.559C407.362 619.563 407.052 619.657 406.785 619.831C406.519 620.005 406.307 620.251 406.175 620.54C405.99 620.941 405.868 621.367 405.812 621.805C405.69 622.576 405.69 623.361 405.812 624.132C406.038 625.425 406.594 626.639 407.425 627.656C408.864 629.418 410.356 629.808 410.383 629.687C410.41 629.566 409.254 628.893 408.138 627.198C407.501 626.226 407.092 625.123 406.941 623.97C406.847 623.31 406.847 622.64 406.941 621.98C407.049 621.253 407.331 620.635 407.613 620.729C407.896 620.823 408.595 621.267 408.958 621.845C409.332 622.431 409.648 623.053 409.899 623.701C410.317 624.797 410.571 625.948 410.652 627.118C410.786 629.135 410.437 630.4 410.638 630.44Z" fill="#263238"/>
<path d="M421.313 391.047C421.313 391.047 392.985 529.009 392.985 533.717C392.985 538.424 403.916 640.406 403.916 640.406H445.445L435.942 529.965L469.645 437.492L466.284 391.047H421.313Z" fill="#211F54"/>
<path d="M462.868 414.72C463.541 419.32 547.016 634.662 547.016 634.662L588.25 620.095C587.86 620.095 540.665 493.759 540.665 493.759C540.665 493.759 539.155 426.384 535.15 392.955C532.629 371.909 513.675 359.505 513.675 359.505L458.687 388.585L462.868 414.72Z" fill="#211F54"/>
<path d="M397.22 261.074C396.952 262.419 421.836 347.593 421.836 347.593L423.693 378.297L420.143 392.956C420.143 392.956 449.075 396.453 470.734 397.422C492.393 398.39 514.812 362.783 514.812 362.783L503.767 269.575L464.778 224.421L449.815 228.914C449.815 228.914 441.251 258.182 416.325 246.964L412.964 248.888L397.22 261.074Z" fill="#0075FF"/>
<path d="M399.593 250.358L425.584 237.373L461.525 225.446C461.525 225.446 482.301 221.001 494.876 228.043C505.886 234.239 511.3 340.318 511.3 340.318L514.393 361.471L424.043 378.601L425.584 357.627C425.584 357.627 407.697 324.85 403.561 310.466C401.986 289.579 399.593 250.358 399.593 250.358Z" fill="#0075FF"/>
<path d="M502.613 259.428C502.538 259.485 502.457 259.532 502.371 259.568L501.667 259.914C501.05 260.215 500.149 260.614 499.023 261.085C493.133 263.524 486.958 265.211 480.646 266.105C479.437 266.274 478.454 266.388 477.77 266.441L476.99 266.496C476.898 266.515 476.805 266.522 476.711 266.515C476.799 266.487 476.89 266.467 476.982 266.457L477.757 266.341C478.434 266.255 479.42 266.107 480.615 265.912C483.748 265.403 486.853 264.733 489.918 263.906C492.976 263.063 495.989 262.062 498.944 260.905C500.077 260.462 500.991 260.09 501.622 259.822L502.351 259.525C502.435 259.483 502.523 259.451 502.613 259.428V259.428Z" fill="white"/>
<path d="M433.849 109.719C434.653 108.521 435.722 107.524 436.974 106.806C438.225 106.089 439.626 105.67 441.066 105.583C442.236 105.502 443.545 105.635 444.427 104.862C444.978 104.222 445.418 103.494 445.728 102.708C446.067 102.173 446.51 101.71 447.03 101.348C447.55 100.987 448.138 100.732 448.757 100.601C449.377 100.47 450.017 100.464 450.639 100.584C451.262 100.703 451.854 100.947 452.38 101.299C452.827 101.737 453.343 102.098 453.907 102.368C456.349 103.134 458.05 98.4983 460.486 99.2865C459.548 99.8531 458.807 100.693 458.36 101.694C458.15 102.197 458.115 102.757 458.261 103.283C458.407 103.809 458.726 104.27 459.165 104.593C461.582 106.044 464.266 101.331 466.86 102.421C468.269 103.048 468.82 105.116 470.343 105.198C470.929 105.15 471.503 105.002 472.04 104.76C473 104.516 474.018 104.646 474.886 105.125C475.754 105.604 476.407 106.395 476.713 107.338C477.182 108.961 476.717 111.129 478.158 112.015C479.045 112.556 480.191 112.236 481.184 111.898C481.435 113.427 481.336 114.994 480.894 116.479C482.358 117.074 483.535 118.214 484.177 119.658C484.82 121.103 484.878 122.74 484.34 124.226C485.89 124.922 487.288 125.914 488.456 127.148C489.541 128.445 490.081 130.346 489.345 131.872C489.143 132.198 488.987 132.551 488.882 132.921C488.842 133.34 488.917 133.761 489.097 134.14C489.695 135.631 490.648 137.009 490.861 138.6C491.074 140.19 490.237 142.136 488.636 142.285C488.268 142.31 487.836 142.268 487.564 142.527C487.38 142.746 487.29 143.029 487.314 143.314C487.418 144.467 487.703 145.596 488.158 146.661C488.614 147.735 488.644 148.943 488.242 150.039C487.748 151.083 486.251 151.682 485.4 150.921C486.17 152.595 486.934 154.277 487.704 155.952C488.158 156.951 488.585 158.178 487.981 159.084C487.171 160.267 485.222 159.8 484.248 158.743C483.274 157.685 482.802 156.237 481.823 155.201C481.374 154.821 480.967 154.394 480.608 153.928C480.356 153.539 480.213 153.041 479.805 152.815C478.989 152.364 478.077 153.546 478.343 154.443C478.609 155.339 479.455 155.904 480.156 156.494C480.858 157.084 481.52 158.033 481.189 158.913C481.037 159.33 480.669 159.676 480.545 160.084C480.047 161.571 482.246 162.507 482.748 163.982C483.122 165.067 482.492 166.229 481.832 167.176C481.027 168.329 479.277 169.461 478.436 168.336C478.225 167.898 478.038 167.447 477.877 166.988C477.532 166.53 477.08 166.163 476.561 165.918C475.349 165.165 474.386 164.07 473.793 162.771C475.215 164.001 476.792 165.684 476.264 167.486C475.961 168.215 475.551 168.894 475.048 169.503C474.194 170.782 473.794 172.335 472.955 173.629C472.117 174.922 470.543 175.976 469.086 175.49C469.452 176.184 469.572 176.981 469.427 177.752C469.283 178.524 468.882 179.223 468.29 179.738C467.697 180.252 466.948 180.551 466.165 180.585C465.381 180.62 464.609 180.389 463.974 179.929C463.664 179.639 463.298 179.418 462.897 179.278C462.437 179.243 461.976 179.339 461.567 179.552C460.265 180.022 458.86 180.123 457.505 179.845C456.149 179.567 454.897 178.92 453.885 177.977L455.156 177.249C452.429 177.389 449.577 177.508 447.109 176.359C444.64 175.21 442.634 172.475 443.35 169.839C443.655 168.692 444.417 167.441 443.788 166.439C443.354 165.743 442.448 165.552 441.648 165.427L431.524 163.796C429.887 163.533 428.153 163.233 426.901 162.145C425.649 161.056 425.165 158.911 426.355 157.76C425.351 156.413 423.981 155.382 422.409 154.79C420.656 154.121 418.727 154.031 416.958 153.45C415.19 152.869 413.405 151.52 413.189 149.683C412.974 147.847 415.248 145.908 416.765 147.051C416.008 144.323 411.035 145.041 410.115 142.367C409.361 140.191 412.023 138.509 413.177 136.525C412.736 135.83 411.853 135.449 411.39 134.74C410.415 133.254 411.798 131.342 413.257 130.303C414.716 129.264 416.49 128.152 416.561 126.375C416.633 124.598 414.785 122.869 415.435 121.167C415.631 120.703 415.995 120.33 416.455 120.123C416.914 119.916 417.435 119.89 417.912 120.05C418.601 116.618 425.024 117.94 426.246 114.659C426.358 114.404 426.381 114.119 426.313 113.849C426.229 113.623 426.084 113.424 425.895 113.275C425.037 112.522 423.878 112.247 422.884 111.728C421.889 111.21 420.925 110.188 421.138 109.076C421.35 107.965 423.33 107.63 423.51 108.751C423.764 108.468 424.078 108.248 424.43 108.105C424.781 107.962 425.161 107.901 425.539 107.926C425.918 107.952 426.286 108.062 426.615 108.251C426.945 108.439 427.227 108.7 427.441 109.013C428.041 107.94 429.526 107.683 430.71 108.109C431.831 108.634 432.814 109.416 433.577 110.392" fill="#211F54"/>
<path d="M455.399 142.301C453.475 137.933 449.345 134.925 445.041 132.858C443.286 131.882 441.316 131.356 439.308 131.328C437.304 131.424 435.242 132.556 434.606 134.46L435.556 137.669C436.208 142.953 441.116 146.495 444.026 150.947C445.286 152.885 446.507 155.283 448.717 155.753C449.929 155.946 451.169 155.678 452.192 155.002C456.335 152.584 457.325 146.705 455.399 142.301Z" fill="#4B3CFB"/>
<path d="M460.809 166.228C461.804 163.934 461.961 161.364 461.254 158.965C460.546 156.567 459.019 154.494 456.938 153.108C458.309 150.289 456.813 146.755 454.355 144.814C451.896 142.872 448.725 142.15 445.666 141.485C442.594 134.816 433.653 131.636 427.055 134.857C422.253 130.327 414.336 131.201 408.548 134.373C407.193 135.251 405.72 135.931 404.174 136.392C403.001 136.554 401.818 136.637 400.634 136.64C394.14 137.189 388.884 143.003 387.735 149.409C387.622 150.447 387.373 151.465 386.996 152.438C386.414 153.67 385.308 154.568 384.437 155.609C383.495 156.752 382.81 158.084 382.429 159.516C382.048 160.947 381.98 162.444 382.23 163.904C382.663 166.372 384.023 168.797 383.469 171.247C383.199 172.471 382.463 173.583 382.318 174.828C381.896 178.445 386.384 181.079 386.464 184.705C386.514 185.428 386.305 186.168 386.261 186.898C386.174 188.434 386.649 189.95 387.597 191.162C388.322 192.084 389.334 192.856 389.652 193.981C389.782 194.862 389.801 195.756 389.708 196.642C389.744 198.818 396.006 205.853 398.061 206.588L451.93 195.172C453.861 194.265 455.463 192.779 456.513 190.92C457.563 189.062 458.008 186.922 457.788 184.799C457.614 184.11 457.636 183.386 457.853 182.71C458.182 182.202 458.611 181.767 459.114 181.431C462.16 178.806 461.531 173.956 460.297 170.12C460.095 169.594 459.982 169.037 459.965 168.473C460.097 167.677 460.384 166.915 460.809 166.228Z" fill="#211F54"/>
<path d="M445.425 169.715C443.479 160.156 435.091 150.54 424.612 147.976C417.966 146.364 413.347 147.37 410.132 147.696C405.642 148.25 401.427 150.156 398.044 153.161C395.235 154.519 386.574 166.868 388.398 177.801C390.422 189.932 393.376 204.664 396.865 213.258C403.88 230.53 418.152 229.619 418.152 229.619L423.459 259.749L456.303 228.758L445.425 169.715Z" fill="#FFBF9D"/>
<path d="M424.697 190.257C424.773 190.939 425.112 191.564 425.641 192C426.17 192.436 426.848 192.649 427.532 192.593C427.867 192.579 428.197 192.499 428.501 192.356C428.805 192.213 429.077 192.01 429.302 191.76C429.526 191.51 429.699 191.218 429.809 190.901C429.919 190.583 429.965 190.247 429.943 189.912C429.869 189.229 429.531 188.603 429.001 188.166C428.472 187.73 427.792 187.518 427.109 187.575C426.773 187.589 426.443 187.67 426.14 187.813C425.836 187.956 425.563 188.158 425.339 188.408C425.114 188.658 424.942 188.95 424.831 189.268C424.721 189.585 424.676 189.922 424.697 190.257V190.257Z" fill="#211F54"/>
<path d="M398.027 192.122C398.103 192.805 398.443 193.432 398.973 193.868C399.504 194.304 400.184 194.516 400.869 194.458C401.204 194.443 401.533 194.362 401.836 194.219C402.14 194.075 402.412 193.873 402.636 193.623C402.861 193.374 403.033 193.082 403.144 192.765C403.254 192.448 403.301 192.112 403.28 191.777C403.206 191.094 402.868 190.468 402.338 190.031C401.808 189.595 401.129 189.383 400.445 189.44C400.109 189.453 399.779 189.533 399.474 189.676C399.169 189.819 398.896 190.021 398.671 190.271C398.445 190.521 398.272 190.814 398.162 191.131C398.051 191.449 398.005 191.786 398.027 192.122V192.122Z" fill="#211F54"/>
<path d="M392.388 184.035C392.75 184.336 394.555 182.634 397.348 182.301C400.141 181.967 402.385 183.132 402.649 182.751C402.782 182.581 402.382 182.043 401.404 181.458C400.085 180.76 398.583 180.488 397.103 180.677C395.643 180.851 394.274 181.483 393.194 182.483C392.449 183.254 392.211 183.902 392.388 184.035Z" fill="#211F54"/>
<path d="M421.042 182.328C421.438 182.59 423.058 180.734 425.815 180.091C428.572 179.448 430.917 180.395 431.143 179.987C431.253 179.805 430.796 179.285 429.762 178.827C428.372 178.268 426.842 178.154 425.384 178.502C423.945 178.818 422.645 179.589 421.676 180.7C421.002 181.539 420.852 182.21 421.042 182.328Z" fill="#211F54"/>
<path d="M412.619 203.563C412.608 203.404 410.83 203.311 407.954 203.287C407.229 203.301 406.499 203.243 406.35 202.767C406.2 202.291 406.323 201.455 406.574 200.573C407.042 198.754 407.528 196.875 408.039 194.849C410.048 186.721 411.411 180.046 411.086 179.967C410.761 179.888 408.859 186.426 406.851 194.569C406.367 196.571 405.912 198.484 405.474 200.316C405.301 201.163 404.949 202.146 405.442 203.179C405.578 203.419 405.767 203.625 405.994 203.782C406.221 203.938 406.481 204.041 406.754 204.082C407.163 204.147 407.578 204.154 407.989 204.105C410.859 203.933 412.63 203.722 412.619 203.563Z" fill="#211F54"/>
<path d="M414.659 210.204C415.11 209.465 415.743 208.853 416.497 208.428C417.251 208.003 418.102 207.778 418.968 207.775C419.595 207.756 420.22 207.864 420.805 208.093C421.39 208.321 421.922 208.666 422.371 209.105C422.803 209.529 423.094 210.075 423.206 210.67C423.318 211.265 423.244 211.88 422.995 212.431C422.35 213.588 420.814 214.036 419.462 213.804C418.077 213.495 416.768 212.912 415.611 212.091C415.266 211.904 414.958 211.654 414.703 211.356C414.582 211.213 414.506 211.037 414.485 210.851C414.465 210.665 414.5 210.477 414.586 210.311" fill="#FF9A6C"/>
<path d="M421.127 204.515C420.672 204.547 421.031 207.594 418.678 210.075C416.325 212.556 413.048 212.611 413.078 213.045C413.092 213.24 413.876 213.548 415.282 213.421C417.074 213.23 418.741 212.414 419.992 211.116C421.19 209.867 421.855 208.2 421.845 206.469C421.769 205.182 421.335 204.472 421.127 204.515Z" fill="#211F54"/>
<path d="M417.572 171.51C418.013 172.206 420.688 171.22 424.017 170.878C427.347 170.536 430.17 170.832 430.45 170.065C430.569 169.693 429.953 169.09 428.729 168.602C427.117 168.03 425.396 167.833 423.697 168.024C421.997 168.216 420.364 168.793 418.92 169.709C417.839 170.453 417.375 171.183 417.572 171.51Z" fill="#211F54"/>
<path d="M391.942 171.851C392.513 172.429 394.374 171.536 396.696 171.221C399.019 170.906 401.046 171.134 401.423 170.411C401.58 170.059 401.197 169.461 400.262 168.96C399.023 168.353 397.626 168.148 396.265 168.375C394.9 168.568 393.627 169.177 392.62 170.119C391.883 170.904 391.692 171.593 391.942 171.851Z" fill="#211F54"/>
<path d="M418.165 229.604C426.662 227.764 434.482 223.602 440.756 217.581C440.756 217.581 437.302 231.715 418.959 234.211L418.165 229.604Z" fill="#894943"/>
<path d="M446.487 187.404C446.175 186.068 446.99 182.561 448.29 182.049C451.686 180.679 458.099 179.482 460.233 188.418C463.156 200.632 450.3 201.045 450.204 200.703C450.107 200.361 447.541 192 446.487 187.404Z" fill="#FFBF9D"/>
<path d="M452.461 195.418C452.508 195.364 452.707 195.51 453.112 195.59C453.668 195.687 454.24 195.564 454.707 195.246C455.884 194.438 456.48 192.152 456.013 189.941C455.793 188.885 455.339 187.891 454.685 187.034C454.479 186.68 454.191 186.382 453.844 186.164C453.498 185.947 453.103 185.817 452.696 185.786C452.436 185.78 452.182 185.864 451.978 186.026C451.774 186.188 451.634 186.416 451.581 186.67C451.499 187.047 451.624 187.277 451.575 187.31C451.527 187.342 451.268 187.172 451.243 186.607C451.235 186.287 451.339 185.974 451.537 185.722C451.812 185.389 452.206 185.177 452.635 185.13C453.161 185.108 453.683 185.222 454.152 185.46C454.621 185.698 455.021 186.052 455.314 186.489C456.086 187.424 456.617 188.534 456.861 189.722C457.376 192.198 456.666 194.819 455.024 195.74C454.719 195.911 454.379 196.013 454.029 196.037C453.679 196.062 453.329 196.008 453.002 195.881C452.553 195.695 452.427 195.449 452.461 195.418Z" fill="#894943"/>
<path d="M385.723 178.584C387.832 176.461 388.923 174.003 388.107 171.155C389.857 171.265 391.033 168.772 391.659 167.13C392.284 165.489 393.29 164.504 392.809 162.816C392.692 162.487 392.667 162.132 392.737 161.79C392.875 161.265 393.406 160.973 393.888 160.7C395.093 159.975 396.098 158.959 396.811 157.746C397.523 156.533 397.921 155.161 397.968 153.755C400.86 154.288 403.84 154.097 406.64 153.199C407.491 153.972 408.525 154.517 409.643 154.782C410.762 155.048 411.93 155.025 413.037 154.717C414.145 154.409 415.157 153.825 415.978 153.02C416.799 152.215 417.403 151.215 417.734 150.114C418.321 150.761 419.041 151.275 419.844 151.621C420.647 151.967 421.515 152.137 422.389 152.119C424.135 152.072 425.865 151.77 427.524 151.223C427.601 152.951 428.295 154.594 429.479 155.856C430.663 157.117 432.259 157.912 433.978 158.099C434.211 158.077 434.446 158.102 434.669 158.173C434.892 158.243 435.099 158.357 435.277 158.509C435.494 158.945 435.529 159.449 435.375 159.911C435.307 160.668 435.392 161.431 435.625 162.154C435.858 162.878 436.234 163.547 436.73 164.122C437.227 164.697 437.834 165.166 438.516 165.502C439.198 165.837 439.94 166.032 440.698 166.074C440.329 166.594 440.082 167.191 439.977 167.82C439.871 168.449 439.909 169.094 440.088 169.706C440.267 170.318 440.582 170.882 441.01 171.355C441.438 171.828 441.967 172.198 442.559 172.437C443.071 172.604 443.723 172.791 443.775 173.325C443.776 173.529 443.725 173.73 443.627 173.909C443.001 175.332 442.382 176.864 442.634 178.401C442.887 179.937 444.295 181.393 445.812 181.083C445.46 181.501 445.195 181.986 445.035 182.509C444.874 183.032 444.821 183.582 444.878 184.126C445.105 185.192 446.463 186.027 447.334 185.407C447.722 185.147 453.528 182.533 453.717 182.114C456.083 176.61 450.536 172.43 448.842 166.681C447.03 160.932 443.91 155.681 439.727 151.342C438.048 149.469 436.129 147.825 434.021 146.454C431.532 145.032 428.891 143.894 426.147 143.062C422.615 141.856 418.989 140.658 415.258 140.657C408.302 140.628 401.997 144.621 396.503 148.89C394.352 150.451 392.423 152.296 390.767 154.375C388.967 156.99 387.647 159.906 386.869 162.985C385.586 167.381 384.747 171.993 385.34 176.534" fill="#211F54"/>
<path d="M382.335 174.863C382.375 174.355 382.494 173.856 382.689 173.385C382.853 172.917 383.111 172.361 383.296 171.673C383.522 170.879 383.576 170.045 383.451 169.229C383.288 168.205 383.038 167.198 382.704 166.217C382.294 165.036 382.044 163.805 381.962 162.558C381.909 161.114 382.155 159.676 382.682 158.331C382.968 157.599 383.338 156.903 383.786 156.257C384.269 155.587 384.805 154.957 385.389 154.373C385.992 153.779 386.496 153.091 386.88 152.337C387.2 151.513 387.41 150.651 387.507 149.773C388.157 145.805 390.208 142.201 393.286 139.616C394.116 138.924 395.018 138.325 395.978 137.83C396.971 137.331 398.023 136.959 399.109 136.725C399.662 136.609 400.221 136.527 400.783 136.477C401.354 136.437 401.917 136.398 402.473 136.359C403.604 136.344 404.72 136.091 405.746 135.614C406.794 135.141 407.773 134.499 408.838 133.945C409.906 133.384 411.019 132.913 412.165 132.536C413.328 132.148 414.522 131.861 415.735 131.676C416.973 131.498 418.226 131.442 419.476 131.509C422.058 131.625 424.538 132.552 426.564 134.158L427.158 134.653L426.945 134.625C430.361 133.116 434.227 132.979 437.741 134.242C441.256 135.504 444.151 138.07 445.828 141.408L445.704 141.308C447.332 141.631 448.938 142.057 450.512 142.584C452.05 143.093 453.48 143.882 454.732 144.91C455.923 145.938 456.81 147.272 457.296 148.769C457.783 150.201 457.706 151.765 457.079 153.141L457.021 152.942C459.053 154.266 460.559 156.26 461.277 158.577C461.97 160.639 462.014 162.864 461.403 164.952C461.258 165.429 461.08 165.896 460.869 166.347C460.66 166.791 460.435 167.206 460.277 167.638C460.118 168.05 460.064 168.496 460.121 168.934C460.191 169.364 460.3 169.787 460.448 170.197C460.938 171.715 461.253 173.284 461.385 174.873C461.503 176.157 461.37 177.452 460.991 178.685C460.703 179.593 460.21 180.423 459.549 181.109C459.015 181.67 458.491 181.961 458.235 182.254C458.099 182.401 457.976 182.56 457.869 182.73C457.942 182.542 458.054 182.371 458.197 182.228C458.451 181.912 458.966 181.6 459.479 181.042C460.115 180.357 460.589 179.537 460.865 178.643C461.216 177.424 461.331 176.149 461.204 174.886C461.063 173.312 460.738 171.761 460.235 170.263C460.086 169.84 459.97 169.406 459.891 168.965C459.831 168.49 459.887 168.008 460.054 167.559C460.23 167.109 460.43 166.669 460.651 166.239C460.854 165.798 461.024 165.342 461.158 164.875C461.742 162.839 461.69 160.674 461.007 158.669C460.298 156.421 458.829 154.49 456.851 153.208L456.73 153.137L456.794 153.009C457.391 151.693 457.458 150.198 456.981 148.834C456.509 147.399 455.654 146.121 454.509 145.137C453.284 144.143 451.891 143.38 450.395 142.883C448.832 142.369 447.239 141.949 445.625 141.626L445.538 141.632L445.532 141.545C443.879 138.316 441.054 135.841 437.636 134.628C434.218 133.414 430.465 133.553 427.147 135.017L427.034 135.069L426.934 134.989L426.363 134.506C424.394 132.953 421.989 132.058 419.484 131.944C418.261 131.876 417.035 131.928 415.822 132.099C414.628 132.281 413.45 132.562 412.302 132.94C411.177 133.313 410.083 133.776 409.031 134.324C407.986 134.855 406.994 135.505 405.917 135.994C405.384 136.245 404.826 136.437 404.252 136.568C403.68 136.685 403.1 136.752 402.516 136.77C401.946 136.809 401.387 136.805 400.83 136.844C400.282 136.893 399.738 136.975 399.2 137.089C398.145 137.318 397.121 137.675 396.153 138.152C395.217 138.636 394.336 139.219 393.523 139.89C390.496 142.419 388.472 145.948 387.816 149.839C387.714 150.743 387.493 151.631 387.159 152.477C386.756 153.255 386.232 153.963 385.607 154.576C385.029 155.147 384.499 155.764 384.023 156.422C383.58 157.051 383.213 157.73 382.93 158.445C382.405 159.755 382.154 161.159 382.195 162.57C382.268 163.79 382.504 164.995 382.895 166.152C383.225 167.146 383.469 168.167 383.624 169.202C383.739 170.04 383.67 170.892 383.421 171.7C383.201 172.391 382.935 172.947 382.763 173.402C382.621 173.747 382.505 174.102 382.416 174.465C382.392 174.735 382.343 174.862 382.335 174.863Z" fill="#4A4566"/>
<path d="M420.702 133.485C420.702 133.485 420.339 133.373 419.674 133.216C418.743 133.001 417.782 132.946 416.832 133.052C415.435 133.202 414.104 133.721 412.974 134.556C411.591 135.599 410.574 137.053 410.07 138.71C409.92 139.206 409.825 139.717 409.785 140.233C409.75 140.46 409.766 140.692 409.832 140.912C409.897 141.132 410.011 141.335 410.164 141.507L410.558 141.849L410.034 141.821C408.667 141.761 407.332 142.24 406.316 143.156C405.514 143.876 404.968 144.836 404.758 145.893C404.616 146.595 404.61 147.318 404.74 148.023C404.809 148.275 404.866 148.53 404.909 148.788C404.87 148.731 404.836 148.67 404.81 148.606C404.734 148.426 404.67 148.241 404.619 148.053C404.439 147.343 404.407 146.604 404.525 145.881C404.714 144.756 405.267 143.725 406.098 142.946C407.16 141.964 408.566 141.443 410.011 141.495L409.881 141.817C409.685 141.611 409.537 141.364 409.447 141.094C409.358 140.824 409.33 140.537 409.365 140.255C409.408 139.709 409.509 139.169 409.666 138.644C410.192 136.908 411.265 135.388 412.724 134.312C413.72 133.595 414.865 133.113 416.074 132.903C417.283 132.692 418.523 132.759 419.702 133.098C419.956 133.174 420.205 133.265 420.448 133.372C420.625 133.425 420.708 133.47 420.702 133.485Z" fill="#4A4566"/>
<path d="M443.773 142.976C443.695 143.172 443.585 143.354 443.448 143.514C443.107 143.983 442.716 144.412 442.281 144.794C441.627 145.384 440.853 145.824 440.012 146.086C438.939 146.425 437.777 146.345 436.759 145.863L437.021 145.765C436.947 145.952 436.859 146.147 436.779 146.348C436.698 146.55 436.573 146.733 436.47 146.922C435.83 147.997 434.929 148.894 433.851 149.531C432.984 150.058 432.022 150.409 431.019 150.564C430.348 150.664 429.666 150.665 428.995 150.568C428.739 150.543 428.489 150.477 428.255 150.372C429.155 150.461 430.063 150.437 430.957 150.299C431.913 150.113 432.825 149.752 433.649 149.233C434.661 148.61 435.509 147.753 436.123 146.735C436.226 146.547 436.33 146.372 436.419 146.185C436.507 145.997 436.575 145.818 436.649 145.638L436.73 145.444L436.91 145.533C437.843 145.965 438.902 146.041 439.887 145.746C440.695 145.516 441.446 145.12 442.092 144.582C443.227 143.682 443.719 142.936 443.773 142.976Z" fill="#4A4566"/>
<path d="M452.839 152.828C452.839 152.828 452.844 152.907 452.856 153.066C452.844 153.288 452.798 153.507 452.719 153.715C452.403 154.491 451.807 155.121 451.05 155.48C449.916 155.966 448.666 156.114 447.45 155.906C446.777 155.823 446.082 155.748 445.345 155.589C444.55 155.455 443.827 155.045 443.304 154.432L443.182 154.251L443.489 154.274C442.606 155.433 441.551 156.449 440.361 157.288C439.372 157.977 438.21 158.373 437.007 158.431C436.201 158.48 435.395 158.316 434.673 157.955C434.476 157.861 434.292 157.742 434.125 157.601C434.01 157.508 433.955 157.453 433.962 157.445C433.969 157.438 434.227 157.608 434.714 157.821C435.429 158.117 436.204 158.237 436.974 158.172C438.118 158.073 439.215 157.67 440.152 157.005C441.296 156.167 442.314 155.169 443.175 154.041L443.335 153.841L443.489 154.063L443.586 154.209C444.06 154.749 444.705 155.109 445.414 155.228C446.093 155.373 446.779 155.483 447.469 155.556C448.618 155.774 449.805 155.666 450.895 155.244C451.613 154.931 452.198 154.376 452.55 153.676C452.674 153.404 452.771 153.12 452.839 152.828Z" fill="#4A4566"/>
<path d="M455.912 106.135C455.912 106.135 455.705 106.193 455.355 106.37C454.858 106.644 454.453 107.059 454.19 107.562C453.78 108.347 453.646 109.246 453.809 110.116C454.054 111.248 454.465 112.338 455.03 113.35L455.122 113.532L454.92 113.546C453.396 113.851 452.014 114.647 450.984 115.811C450.4 116.454 449.976 117.226 449.744 118.063C449.513 118.9 449.481 119.78 449.652 120.632C449.792 121.411 450.11 122.147 450.581 122.783C451.053 123.419 451.664 123.938 452.369 124.298L452.849 124.526L452.327 124.643C451.461 124.847 450.647 125.227 449.935 125.761C449.223 126.294 448.628 126.969 448.189 127.743C447.487 128.992 447.237 130.446 447.482 131.859C447.643 132.79 447.994 133.677 448.514 134.466C448.886 135.021 449.151 135.279 449.123 135.295C449.095 135.312 449.047 135.242 448.922 135.12C448.735 134.944 448.566 134.749 448.417 134.538C447.688 133.545 447.256 132.365 447.17 131.136C447.084 129.907 447.348 128.679 447.931 127.593C448.388 126.767 449.013 126.045 449.766 125.474C450.519 124.904 451.383 124.497 452.302 124.281L452.261 124.625C451.502 124.242 450.842 123.688 450.334 123.007C449.825 122.325 449.481 121.535 449.33 120.698C449.133 119.771 449.173 118.809 449.446 117.901C449.706 117.041 450.145 116.245 450.735 115.567C451.823 114.353 453.281 113.531 454.883 113.229L454.768 113.455C454.196 112.415 453.791 111.292 453.57 110.126C453.421 109.202 453.59 108.255 454.05 107.441C454.34 106.919 454.79 106.504 455.332 106.255C455.471 106.188 455.62 106.141 455.772 106.115C455.82 106.115 455.867 106.121 455.912 106.135Z" fill="#4A4566"/>
<path d="M483.829 127.631C483.829 127.631 483.776 127.7 483.659 127.796C483.486 127.947 483.304 128.088 483.115 128.219C482.395 128.705 481.607 129.083 480.776 129.341C479.503 129.749 478.159 129.892 476.828 129.762C475.116 129.619 473.476 129.014 472.082 128.01L472.352 127.926C472.003 129.059 471.406 130.099 470.604 130.972C469.802 131.845 468.816 132.527 467.717 132.971C466.529 133.419 465.23 133.483 464.003 133.153C462.777 132.824 461.685 132.117 460.882 131.132L461.195 131.045C461.081 131.923 460.738 132.756 460.202 133.46C459.714 134.081 459.123 134.614 458.454 135.035C457.343 135.701 456.104 136.127 454.818 136.284C453.992 136.399 453.159 136.457 452.326 136.458C452.029 136.473 451.732 136.462 451.438 136.426C451.732 136.38 452.029 136.36 452.326 136.364C453.152 136.321 453.974 136.232 454.79 136.097C456.047 135.92 457.252 135.482 458.33 134.811C459.008 134.402 459.587 133.848 460.028 133.19C460.469 132.532 460.759 131.785 460.88 131.002L460.929 130.562L461.193 130.914C461.952 131.835 462.979 132.496 464.132 132.806C465.284 133.116 466.504 133.059 467.622 132.643C468.668 132.218 469.607 131.568 470.373 130.738C471.139 129.909 471.714 128.921 472.056 127.845L472.134 127.614L472.332 127.753C473.671 128.731 475.247 129.333 476.897 129.496C478.19 129.636 479.499 129.522 480.749 129.161C481.848 128.812 482.887 128.296 483.829 127.631Z" fill="#4A4566"/>
<path d="M475.117 148.488C475.117 148.488 475.124 148.582 475.026 148.741C474.871 148.956 474.655 149.118 474.405 149.206C473.5 149.504 472.534 149.572 471.595 149.403C470.195 149.177 468.9 148.519 467.892 147.519C466.656 146.277 465.933 144.613 465.868 142.861L465.865 142.817L466.18 142.962C464.824 144.046 463.16 144.671 461.427 144.747C460.028 144.814 458.632 144.559 457.346 144.002C456.484 143.632 455.677 143.143 454.951 142.55C454.677 142.358 454.429 142.131 454.214 141.875C455.212 142.638 456.297 143.279 457.447 143.784C458.705 144.289 460.059 144.509 461.412 144.429C463.067 144.324 464.647 143.706 465.934 142.66L466.222 142.422L466.252 142.841C466.316 144.498 466.99 146.072 468.143 147.262C469.093 148.229 470.317 148.881 471.649 149.13C472.545 149.32 473.472 149.305 474.361 149.086C474.679 148.989 474.949 148.775 475.117 148.488V148.488Z" fill="#4A4566"/>
<path d="M429.275 112.726C429.141 114.029 429.248 115.346 429.591 116.611C430.012 118.126 430.849 119.493 432.006 120.558C433.163 121.623 434.594 122.344 436.138 122.638C437.113 122.836 438.114 122.865 439.098 122.722L439.337 122.705L439.353 122.936C439.25 124.303 439.406 125.676 439.81 126.985C440.138 128.029 440.613 129.021 441.221 129.93C441.447 130.274 441.698 130.601 441.972 130.908C442.063 131.019 442.178 131.108 442.308 131.169C442.437 131.23 442.579 131.262 442.722 131.262C442.813 131.255 442.901 131.228 442.979 131.182C443.057 131.136 443.125 131.073 443.176 130.998C443.248 130.892 443.243 130.812 443.258 130.818C443.272 130.825 443.263 130.898 443.236 131.03C443.187 131.123 443.117 131.204 443.032 131.265C442.947 131.326 442.849 131.367 442.745 131.384C442.576 131.405 442.405 131.384 442.245 131.325C442.086 131.265 441.943 131.168 441.829 131.042C441.537 130.74 441.271 130.413 441.035 130.066C440.381 129.155 439.868 128.15 439.512 127.086C439.072 125.738 438.896 124.318 438.995 122.903L439.205 123.099C438.176 123.26 437.127 123.235 436.107 123.025C434.5 122.722 433.013 121.967 431.82 120.847C430.627 119.728 429.778 118.291 429.372 116.706C429.127 115.765 429.042 114.789 429.12 113.819C429.146 113.555 429.188 113.292 429.246 113.033C429.238 112.816 429.261 112.727 429.275 112.726Z" fill="#4A4566"/>
<path d="M457.761 201.554C457.816 202.354 457.632 203.153 457.233 203.849C456.834 204.544 456.238 205.106 455.52 205.463C454.802 205.82 453.994 205.956 453.199 205.854C452.404 205.752 451.657 205.416 451.052 204.889C450.448 204.363 450.013 203.668 449.803 202.894C449.592 202.12 449.616 201.301 449.871 200.541C450.125 199.78 450.6 199.113 451.234 198.622C451.868 198.131 452.633 197.839 453.433 197.783C453.964 197.746 454.498 197.814 455.004 197.983C455.509 198.153 455.977 198.42 456.379 198.771C456.781 199.121 457.11 199.547 457.347 200.025C457.584 200.502 457.725 201.022 457.761 201.554V201.554Z" fill="#4B3CFB"/>
<path d="M488.577 309.625C488.513 309.652 488.446 309.668 488.377 309.673L487.794 309.782L485.52 310.152C483.548 310.466 480.695 310.896 477.162 311.415C470.097 312.439 460.316 314.774 449.486 316C438.656 317.226 428.834 317.083 421.718 317.683C418.163 317.972 415.281 318.188 413.289 318.32L410.994 318.481L410.4 318.522C410.333 318.537 410.265 318.542 410.197 318.536C410.264 318.523 410.332 318.518 410.4 318.522L410.994 318.481L413.285 318.266L421.706 317.514C428.812 316.868 438.63 316.957 449.454 315.731C460.277 314.506 470.06 312.21 477.131 311.254L485.51 310.105L487.789 309.803L488.383 309.761L488.577 309.625Z" fill="white"/>
<g opacity="0.3">
<path opacity="0.3" d="M475.75 256.28L486.868 300.155L492.34 301.083L494.948 319.874L446.683 391.968H468.665L473.424 379.056L513.073 352.581V346.358L497.866 291.708L490.606 295.475L475.75 256.28Z" fill="black"/>
</g>
<path d="M399.674 250.332C390.668 258.423 386.56 266.995 382.153 276.814C374.176 295.146 372.245 302.046 372.245 302.046L406.444 318.445L404.256 306.112L399.674 250.332Z" fill="#0075FF"/>
<path d="M367.848 252.872L358.138 310.652L382.304 324.38L386.629 252.522L367.848 252.872Z" fill="#FFBF9D"/>
<path d="M358.138 310.652C358.138 310.652 354.066 331.998 371.39 339.145C384.256 344.46 398.706 332.843 402.404 316.319L383.517 307.539L358.138 310.652Z" fill="#FFBF9D"/>
<path d="M383.389 303.144C383.628 304.306 383.745 305.489 383.738 306.675C383.949 312.402 383.382 318.132 382.052 323.706C381.828 324.872 381.481 326.012 381.016 327.105C381.145 325.928 381.346 324.761 381.618 323.609C382.028 321.464 382.522 318.499 382.823 315.173C383.124 311.846 383.256 308.857 383.268 306.736C383.223 305.537 383.263 304.337 383.389 303.144V303.144Z" fill="#FF9A6C"/>
<path d="M386.617 252.86C386.738 252.402 392.003 233.034 392.003 233.034L389.051 214.039C389.051 214.039 388.497 208.422 385.437 209.507C382.377 210.591 383.365 216.738 383.365 216.738L372.595 228.273L369.824 226.537C367.98 228.511 366.889 231.071 366.74 233.769C366.74 237.77 367.8 252.896 367.8 252.896" fill="#FFBF9D"/>
<path d="M367.847 252.86C367.806 252.698 367.782 252.532 367.775 252.366L367.654 250.907C367.558 249.569 367.425 247.701 367.269 245.375C367.112 243.049 366.931 240.084 366.727 236.794C366.727 235.962 366.618 235.106 366.57 234.239C366.496 233.312 366.577 232.379 366.811 231.478C367.342 229.554 368.32 227.782 369.666 226.308L369.823 226.139L370.015 226.26L372.798 227.995H372.437L383.183 216.449L383.099 216.702C382.894 215.319 382.894 213.914 383.099 212.532C383.208 211.802 383.453 211.098 383.821 210.459C384.225 209.793 384.867 209.306 385.616 209.097C385.998 208.994 386.4 208.999 386.779 209.112C387.158 209.225 387.498 209.441 387.761 209.736C388.239 210.272 388.597 210.905 388.809 211.592C389.173 212.881 389.427 214.2 389.568 215.533C389.773 216.81 389.965 218.076 390.158 219.305C390.905 224.259 391.604 228.851 392.23 232.937V233.045L388.207 247.509C387.725 249.18 387.323 250.506 387.002 251.486C386.881 251.908 386.773 252.245 386.689 252.522C386.658 252.64 386.613 252.753 386.556 252.86C386.555 252.737 386.575 252.614 386.616 252.498C386.616 252.221 386.761 251.872 386.857 251.45C387.11 250.461 387.448 249.124 387.881 247.436C388.809 243.917 390.11 238.999 391.7 232.973V233.081C391.05 228.996 390.327 224.404 389.544 219.45C389.351 218.245 389.146 216.943 388.941 215.665C388.81 214.376 388.56 213.101 388.195 211.857C388.008 211.255 387.701 210.697 387.291 210.218C387.101 210.003 386.854 209.847 386.579 209.768C386.304 209.689 386.012 209.69 385.737 209.772C385.148 210.008 384.641 210.411 384.277 210.931C383.913 211.451 383.709 212.066 383.689 212.7C383.49 214.015 383.49 215.351 383.689 216.666V216.822L383.593 216.931L372.81 228.441L372.642 228.622L372.449 228.489L369.678 226.754H370.015C368.728 228.158 367.784 229.841 367.257 231.671C366.959 233.379 366.918 235.122 367.136 236.842C367.293 240.132 367.437 243.013 367.546 245.411C367.654 247.81 367.726 249.618 367.775 250.956C367.775 251.558 367.775 252.04 367.775 252.426C367.815 252.567 367.839 252.713 367.847 252.86Z" fill="#FF9A6C"/>
<path d="M371.692 231.02C372.252 231.239 372.823 231.428 373.403 231.587C373.403 231.587 372.812 236.926 374.426 237.131C378.426 237.649 378.318 232.394 378.318 232.394C378.318 232.394 378.968 235.709 381.028 235.685C383.088 235.66 384.426 235.142 384.04 231.37L383.353 224.524C383.24 223.819 382.866 223.182 382.305 222.74L380.426 221.414L385.004 222.463C385.004 222.463 387.004 226.079 389.088 225.042C389.535 224.788 389.875 224.382 390.048 223.897C390.22 223.413 390.213 222.882 390.028 222.403C389.555 220.895 388.878 219.459 388.016 218.136C386.811 216.75 380.39 214.038 378.968 214.653C377.547 215.267 376.703 219.353 376.703 219.353C376.703 219.353 373.475 219.835 372.631 224.174C371.145 224.986 369.898 226.175 369.017 227.621" fill="#FFBF9D"/>
<path d="M369.028 227.67C369.028 227.67 369.028 227.561 369.173 227.368C369.337 227.082 369.522 226.808 369.727 226.549C370.5 225.543 371.467 224.703 372.57 224.078L372.486 224.187C372.65 223.158 373.032 222.175 373.606 221.306C374.315 220.222 375.409 219.446 376.666 219.137L376.485 219.317C376.683 218.375 376.961 217.452 377.317 216.557C377.505 216.069 377.747 215.604 378.04 215.171C378.203 214.929 378.412 214.72 378.654 214.557C378.914 214.386 379.222 214.301 379.533 214.315C380.665 214.396 381.778 214.648 382.834 215.063C383.945 215.459 385.028 215.93 386.075 216.473C386.632 216.753 387.164 217.08 387.665 217.449C388.184 217.855 388.597 218.38 388.87 218.98C389.474 220.139 389.974 221.349 390.364 222.596C390.451 222.963 390.456 223.345 390.376 223.714C390.297 224.083 390.136 224.43 389.906 224.729C389.663 225.037 389.34 225.272 388.972 225.408C388.605 225.544 388.207 225.576 387.822 225.5C387.102 225.283 386.458 224.865 385.967 224.295C385.471 223.776 385.042 223.197 384.69 222.572L384.894 222.728L384.087 222.547L380.316 221.68L380.569 221.113L382.449 222.451C382.814 222.803 383.123 223.21 383.364 223.656C383.477 223.896 383.55 224.153 383.581 224.416V225.115C383.678 226.031 383.762 226.935 383.846 227.826C383.931 228.718 384.027 229.598 384.111 230.454C384.218 231.317 384.258 232.188 384.232 233.057C384.253 233.52 384.163 233.981 383.968 234.4C383.772 234.82 383.479 235.186 383.111 235.468C382.366 235.84 381.53 235.99 380.702 235.902C380.292 235.837 379.903 235.675 379.568 235.43C379.233 235.185 378.961 234.863 378.774 234.492C378.4 233.848 378.131 233.148 377.979 232.419H378.461C378.525 233.942 377.999 235.432 376.991 236.577C376.485 237.049 375.828 237.327 375.136 237.36C374.82 237.402 374.5 237.402 374.184 237.36C374.04 237.274 373.915 237.159 373.817 237.022C373.72 236.885 373.652 236.729 373.618 236.565C373.286 235.622 373.147 234.622 373.209 233.624C373.217 232.923 373.265 232.222 373.353 231.527L373.426 231.623L372.136 231.153C371.997 231.109 371.863 231.049 371.739 230.972C371.888 230.982 372.034 231.015 372.173 231.069L373.462 231.454H373.534V231.527C373.499 232.217 373.499 232.909 373.534 233.6C373.507 234.549 373.662 235.494 373.992 236.384C374.124 236.589 374.269 236.818 374.486 236.854C374.758 236.885 375.033 236.885 375.305 236.854C375.907 236.815 376.475 236.563 376.907 236.143C377.81 235.072 378.267 233.696 378.184 232.298V230.261L378.642 232.25C378.789 232.916 379.041 233.555 379.389 234.142C379.533 234.45 379.747 234.72 380.015 234.93C380.283 235.139 380.597 235.282 380.931 235.347C381.66 235.418 382.394 235.285 383.051 234.962C383.334 234.727 383.558 234.429 383.705 234.092C383.851 233.755 383.916 233.388 383.894 233.021C383.911 232.183 383.862 231.345 383.75 230.514C383.666 229.658 383.569 228.779 383.485 227.887L383.208 225.175L383.135 224.488C383.116 224.291 383.063 224.1 382.979 223.921C382.758 223.541 382.482 223.196 382.16 222.897V222.897L380.28 221.571L378.991 220.655L380.533 221.005L384.304 221.872L385.099 222.053H385.232L385.304 222.174C385.872 223.333 386.838 224.249 388.027 224.753C388.298 224.809 388.579 224.788 388.839 224.692C389.099 224.596 389.326 224.429 389.496 224.211C389.669 223.984 389.789 223.721 389.848 223.441C389.906 223.162 389.901 222.873 389.834 222.596C389.463 221.399 388.988 220.237 388.412 219.124C388.176 218.594 387.811 218.13 387.352 217.775C386.873 217.429 386.37 217.119 385.846 216.847C384.821 216.313 383.763 215.846 382.678 215.448C381.689 215.047 380.645 214.795 379.582 214.701C379.359 214.694 379.138 214.749 378.945 214.859C378.751 214.97 378.592 215.132 378.485 215.328C378.203 215.723 377.972 216.152 377.799 216.605C377.445 217.469 377.163 218.36 376.955 219.269V219.414H376.811C375.66 219.688 374.654 220.385 373.992 221.366C373.427 222.186 373.037 223.113 372.847 224.09V224.163C371.762 224.742 370.794 225.519 369.992 226.452C369.293 227.296 369.064 227.694 369.028 227.67Z" fill="#FF9A6C"/>
<path d="M372.33 224.512C372.33 224.428 372.956 224.331 373.932 224.512C375.217 224.844 376.356 225.591 377.173 226.637C377.99 227.683 378.439 228.97 378.45 230.297C378.45 231.31 378.209 231.888 378.136 231.864C378.058 231.354 378.014 230.838 378.004 230.322C377.86 229.127 377.403 227.992 376.679 227.031C375.927 226.086 374.932 225.365 373.799 224.946C373.301 224.832 372.81 224.687 372.33 224.512V224.512Z" fill="#FF9A6C"/>
<path d="M529.714 668.722C521.399 668.594 513.149 667.234 505.232 664.687C488.158 659.455 475.574 647.645 467.83 629.608C461.296 614.382 459.427 597.327 458.594 585.841C456.725 560.285 472.535 481.68 475.722 467.261C478.169 456.218 479.674 427.811 468.717 410.567C466.853 407.401 464.351 404.658 461.37 402.511C458.388 400.365 454.994 398.862 451.401 398.099C423.531 392.261 395.903 427.138 393.59 430.097L332.768 540.526L325.575 536.329L386.666 425.403L386.828 425.188C388.172 423.453 418.946 382.711 453.028 389.826C462.439 391.804 470.102 397.238 475.655 405.967C487.593 424.798 486.975 454.658 483.721 469.09C478.827 491.23 465.141 562.813 466.768 585.195C468.65 611.047 474.929 646.583 507.531 656.577C541.586 667.001 555.111 653.887 565.127 640.705C576.312 626.004 583.223 618.592 592.257 616.198C606.065 612.553 614.898 618.028 620.423 622.991L614.844 630.658C614.588 630.241 605.567 621.417 594.355 624.376C587.632 626.138 581.488 632.998 571.687 645.897C562.814 657.612 550.862 668.722 529.714 668.722Z" fill="#4A4566"/>
<path d="M275.15 644.118L267.325 639.598L326.911 534.685L334.722 539.204L275.15 644.118Z" fill="#DCDDEB"/>
<path d="M219.244 650.025C219.244 650.025 215.09 650.375 213.705 651.599C212.32 652.823 200.543 676.469 200.543 676.469V684.001H233.32L241.105 662.803L241.71 653.926C241.745 653.429 241.678 652.931 241.513 652.461C241.348 651.992 241.089 651.561 240.751 651.196C240.414 650.83 240.005 650.538 239.55 650.337C239.095 650.135 238.604 650.029 238.107 650.025H219.244Z" fill="#0075FF"/>
<path d="M272.887 623.514L263.557 642.156L250.798 648.881L257.749 660.207L268.275 654.261C271.275 652.546 273.731 650.019 275.361 646.971L284.409 630.051L272.887 623.514Z" fill="#4A4566"/>
<path d="M215.48 658.875H238.201V671.586H252.143C252.143 671.586 255.974 670.779 256.902 668.102C257.533 665.522 257.858 662.876 257.87 660.22L250.798 648.881L242.96 652.916H223.775C222.334 652.915 220.918 653.285 219.662 653.992C218.407 654.699 217.355 655.718 216.609 656.952L215.48 658.875Z" fill="#1D53BB"/>
<path d="M215.48 658.875V658.767C215.538 658.641 215.605 658.52 215.682 658.404L216.488 656.978C216.931 656.219 217.489 655.534 218.142 654.947C219.029 654.144 220.079 653.543 221.221 653.185C221.885 652.962 222.577 652.83 223.278 652.795C224.004 652.795 224.757 652.795 225.55 652.795H230.672H242.92L250.812 648.76L250.933 648.693V648.814L257.883 660.126C257.865 662.012 257.716 663.895 257.44 665.762C257.339 666.481 257.181 667.192 256.969 667.887C256.74 668.593 256.338 669.231 255.8 669.743C254.768 670.707 253.51 671.396 252.143 671.747H238.053V671.599C238.053 667.012 238.053 662.749 238.053 658.888L238.174 659.023L221.557 658.942H217.026H221.611L238.12 658.861H238.241V658.983C238.241 662.843 238.241 667.053 238.241 671.693L238.093 671.545H251.941C253.277 671.248 254.516 670.619 255.544 669.716C256.481 668.673 257.027 667.337 257.09 665.936C257.36 664.078 257.508 662.205 257.534 660.328V660.422L250.583 649.096H250.771L242.893 653.064H230.645H225.59C224.81 653.064 224.044 653.064 223.318 653.064C222.634 653.106 221.957 653.228 221.301 653.427C220.186 653.772 219.158 654.355 218.29 655.136C217.639 655.705 217.081 656.372 216.636 657.113L215.789 658.458L215.561 658.821L215.48 658.875Z" fill="#263238"/>
<path d="M756.52 599.409C750.954 590.868 744.515 586.12 726.459 584.035H721.74C686.906 585.192 656.024 592.105 626.836 611.178C619.334 616.061 611.711 622.84 611.254 631.771C610.757 641.186 618.434 648.988 626.487 653.83C642.472 663.447 661.442 666.339 679.982 668.841C693.278 670.629 706.87 672.324 720.086 670.186C733.302 668.047 746.518 661.644 753.778 650.346C758.887 642.41 760.675 632.753 760.97 623.311C761.239 615.106 760.997 606.269 756.52 599.409Z" fill="#0075FF"/>
<path d="M732.657 614.124C732.548 614.072 732.448 614.004 732.361 613.922L731.554 613.303C730.477 612.548 729.329 611.899 728.126 611.367C725.007 609.954 720.059 609.12 713.915 609.188C701.654 609.336 684.553 609.874 666.349 614.447C657.782 616.48 649.4 619.224 641.289 622.652C637.758 624.152 634.362 625.952 631.138 628.032C629.688 628.973 628.336 630.059 627.105 631.273C626.031 632.426 625.125 633.726 624.416 635.134C623.81 636.421 623.359 637.775 623.072 639.169C622.836 640.437 622.742 641.727 622.789 643.016C622.902 645.089 623.356 647.13 624.134 649.055C624.836 650.681 625.663 652.251 626.608 653.749C626.608 653.749 626.527 653.668 626.379 653.48C626.231 653.292 626.03 652.982 625.774 652.646C625.454 652.189 625.163 651.713 624.9 651.22C624.512 650.559 624.17 649.872 623.878 649.162C623.059 647.214 622.577 645.14 622.453 643.029C622.384 641.71 622.465 640.388 622.695 639.088C623.259 635.997 624.701 633.135 626.85 630.843C628.08 629.596 629.431 628.474 630.883 627.494C634.123 625.375 637.542 623.543 641.101 622.019C649.225 618.557 657.632 615.799 666.228 613.774C684.526 609.174 701.694 608.717 713.969 608.69C720.126 608.69 725.155 609.605 728.287 611.124C729.495 611.679 730.637 612.369 731.689 613.182L732.468 613.868C732.589 614.03 732.67 614.111 732.657 614.124Z" fill="#211F54"/>
<path d="M612.625 631.395C612.248 632.034 611.649 632.511 610.942 632.737C610.236 632.962 609.471 632.921 608.794 632.619C608.121 632.323 607.449 632.054 606.777 631.745C606.017 631.463 605.329 631.017 604.762 630.438C604.195 629.859 603.763 629.161 603.497 628.396C603.312 627 603.591 625.583 604.29 624.361C605.473 621.671 606.763 619.128 608.189 616.613C608.736 615.44 609.562 614.42 610.595 613.641C611.287 613.241 612.057 612.994 612.853 612.917C613.648 612.841 614.451 612.936 615.207 613.197C616.713 613.726 618.139 614.464 619.442 615.389C619.442 615.389 620.504 615.699 619.993 617.931C619.616 619.586 615.139 627.36 612.625 631.395Z" fill="#211F54"/>
<path d="M665.838 613.976C664.431 610.869 663.24 607.669 662.275 604.399C661.095 601.203 660.129 597.932 659.384 594.607C661.979 600.907 664.135 607.378 665.838 613.976V613.976Z" fill="#211F54"/>
<g opacity="0.3">
<path opacity="0.3" d="M760.125 662.948C772.374 650.693 772.374 630.824 760.125 618.57C747.876 606.315 728.017 606.315 715.768 618.57C703.519 630.824 703.519 650.693 715.768 662.948C728.017 675.202 747.876 675.202 760.125 662.948Z" fill="black"/>
</g>
<path d="M764.793 665.952C777.042 653.698 777.042 633.829 764.793 621.574C752.544 609.32 732.684 609.32 720.435 621.574C708.186 633.829 708.186 653.698 720.435 665.952C732.684 678.207 752.544 678.207 764.793 665.952Z" fill="#143C8B"/>
<path d="M742.74 669.984C737.551 669.984 732.48 668.445 728.166 665.561C723.852 662.677 720.49 658.577 718.505 653.782C716.52 648.986 716.002 643.709 717.015 638.618C718.028 633.527 720.527 628.851 724.197 625.182C727.867 621.512 732.542 619.014 737.631 618.003C742.72 616.992 747.994 617.514 752.787 619.502C757.579 621.49 761.675 624.856 764.556 629.173C767.436 633.49 768.972 638.565 768.97 643.756C768.959 650.711 766.192 657.378 761.274 662.295C756.357 667.212 749.692 669.977 742.74 669.984ZM742.74 618.872C737.818 618.872 733.006 620.333 728.914 623.068C724.822 625.804 721.632 629.692 719.749 634.242C717.865 638.791 717.372 643.797 718.332 648.626C719.293 653.456 721.663 657.892 725.143 661.374C728.623 664.856 733.057 667.227 737.885 668.188C742.712 669.148 747.716 668.655 752.263 666.771C756.81 664.887 760.697 661.696 763.431 657.601C766.166 653.507 767.625 648.693 767.625 643.769C767.622 637.166 764.999 630.834 760.333 626.164C755.667 621.493 749.34 618.866 742.74 618.859V618.872Z" fill="#0075FF"/>
<path d="M464.818 224.475C464.818 224.475 483.56 220.682 495.942 229.384C503.094 234.415 527.052 276.179 527.052 276.179L491.599 294.552L464.818 224.475Z" fill="#0075FF"/>
<path d="M493.832 293.395L499.828 316.261L461.673 356.801L470.237 376.506C470.237 376.506 522.253 343.767 529.257 333.384C536.262 323 531.798 307.411 530.078 301.708C528.357 296.005 522.603 278.519 522.603 278.519L493.832 293.395Z" fill="#FFBF9D"/>
<path d="M416.163 402.655C416.163 402.655 430.643 385.533 432.028 383.986C433.412 382.439 451.119 366.823 451.119 366.823L462.452 356.062L475.144 371.073L469.282 377.556C469.282 377.556 467.937 382.937 466.243 385.237C464.549 387.537 451.455 388.29 451.455 388.29L449.532 394.517L451.226 397.113L454.883 396.71C454.883 396.71 454.883 400.409 452.624 401.095C450.915 401.473 449.139 401.431 447.448 400.974C447.073 401.681 446.472 402.242 445.742 402.569C445.011 402.896 444.192 402.968 443.415 402.776C442.98 402.641 442.567 402.442 442.192 402.184C440.452 401.044 439.13 399.368 438.427 397.409L437.54 395.015L436.572 400.019L440.161 403.368C440.421 403.606 440.602 403.918 440.68 404.262C440.758 404.606 440.729 404.966 440.598 405.293C440.466 405.62 440.239 405.9 439.944 406.094C439.65 406.288 439.304 406.388 438.951 406.381H438.441C436.31 405.758 434.307 404.76 432.525 403.435C431.006 402.426 430.455 400.099 430.414 398.27L430.952 396.132C430.952 396.132 421.326 403.583 418.852 404.552C416.93 405.291 416.163 402.655 416.163 402.655Z" fill="#FFBF9D"/>
<path d="M518.784 318.952C515.688 317.894 512.52 317.058 509.306 316.45C506.053 316.076 502.777 315.937 499.505 316.033C500.425 315.706 501.392 315.529 502.368 315.508C504.718 315.32 507.082 315.401 509.413 315.75C511.74 316.104 514.019 316.727 516.203 317.607C517.125 317.923 517.995 318.377 518.784 318.952V318.952Z" fill="#FF9A6C"/>
<path d="M436.639 383.313C436.706 383.421 435.98 383.945 435.052 385.021C433.862 386.443 432.95 388.077 432.363 389.836C431.772 391.591 431.322 393.39 431.019 395.217C430.937 396.003 430.756 396.776 430.481 397.517C430.352 396.733 430.352 395.933 430.481 395.149C430.666 393.242 431.077 391.364 431.704 389.554C432.316 387.713 433.336 386.034 434.689 384.645C435.224 384.052 435.892 383.595 436.639 383.313V383.313Z" fill="#FF9A6C"/>
<path d="M443.187 382.721C443.187 382.828 442.528 383.272 441.587 384.2C440.366 385.42 439.406 386.875 438.764 388.478C437.245 392.271 437.419 395.714 437.204 395.687C436.983 394.974 436.919 394.221 437.016 393.481C437.065 391.673 437.434 389.888 438.105 388.209C438.78 386.516 439.86 385.014 441.251 383.837C441.792 383.308 442.458 382.924 443.187 382.721V382.721Z" fill="#FF9A6C"/>
<path d="M447.677 382.721C447.208 383.617 446.664 384.472 446.05 385.276C444.638 387.188 443.769 389.447 443.536 391.813C443.622 394.191 444.382 396.496 445.728 398.458C446.302 399.282 446.81 400.15 447.247 401.054C446.488 400.38 445.835 399.596 445.311 398.727C444.669 397.82 444.119 396.851 443.671 395.835C443.098 394.568 442.814 393.19 442.837 391.8C443.06 389.298 444.04 386.924 445.647 384.994C446.204 384.137 446.889 383.371 447.677 382.721V382.721Z" fill="#FF9A6C"/>
<path d="M527.052 276.18C526.843 276.342 526.618 276.482 526.38 276.597L524.377 277.713L516.902 281.748L491.761 294.903L491.411 295.091L491.277 294.714C490.86 293.584 490.43 292.374 489.932 291.163C485.791 279.865 482.04 269.643 479.298 262.137C477.953 258.506 476.797 255.533 475.99 253.381L475.09 251C474.959 250.731 474.864 250.446 474.807 250.153C474.972 250.401 475.107 250.667 475.211 250.946C475.466 251.471 475.816 252.291 476.246 253.273C477.12 255.304 478.316 258.277 479.755 261.962C482.632 269.333 486.477 279.583 490.591 290.921C491.035 292.145 491.465 293.342 491.935 294.472L491.438 294.284L516.673 281.331L524.256 277.525L526.313 276.529C526.54 276.377 526.79 276.259 527.052 276.18V276.18Z" fill="#263238"/>
<path d="M412.669 251.182C412.661 251.414 412.633 251.645 412.584 251.873L412.244 253.811C411.941 255.495 411.45 257.925 410.835 260.923C409.616 266.929 407.678 275.166 406.232 284.388C405.554 288.717 405.109 293.08 404.899 297.458C404.861 298.473 404.823 299.457 404.785 300.409C404.785 301.354 404.785 302.3 404.785 303.189C404.785 304.986 404.908 306.66 404.965 308.183C405.182 311.228 405.409 313.696 405.664 315.389C405.759 316.203 405.844 316.846 405.901 317.347C405.94 317.575 405.956 317.806 405.948 318.037C405.884 317.814 405.837 317.587 405.806 317.356C405.721 316.865 405.608 316.222 405.475 315.465C405.163 313.782 404.88 311.313 404.615 308.258C404.54 306.726 404.369 305.052 404.379 303.246C404.379 302.3 404.379 301.411 404.379 300.409C404.379 299.406 404.436 298.46 404.464 297.448C404.649 293.053 405.075 288.67 405.74 284.321C407.196 275.072 409.19 266.844 410.467 260.867C411.119 257.916 411.648 255.514 412.026 253.783C412.206 252.989 412.348 252.345 412.452 251.891C412.497 251.647 412.57 251.409 412.669 251.182V251.182Z" fill="#263238"/>
<path opacity="0.3" d="M409.849 263.943C399.894 279.72 397.913 295.834 398.449 314.484L405.889 318.038C404.618 301.357 406.478 279.407 409.849 263.943Z" fill="black"/>
<path d="M292.25 8.32959H122.229V313.898H292.25V8.32959Z" fill="#F7F9FC"/>
<path d="M283.708 17.1987H129.027V304.805H283.708V17.1987Z" fill="white"/>
<path d="M299.444 316.657L292.25 313.898V3.15381H299.444V316.657Z" fill="#DCDDEB"/>
<path d="M166.948 202.97L207.114 165.616C212.206 160.88 218.861 155.786 225.409 158.113C228.553 159.236 230.924 161.923 234.013 163.217C240.175 165.787 247.225 162.076 251.977 157.367C256.728 152.659 260.455 146.764 266.204 143.349C271.952 139.935 280.871 140.375 283.718 146.422V187.083L225.337 212.081L166.948 202.97Z" fill="white"/>
<path d="M129.027 179.606C143.829 173.568 158.604 178.708 169.193 190.668C171.429 193.193 173.459 196.059 176.522 197.488C180.671 199.375 185.503 197.964 189.994 197.488C196.213 196.873 202.48 197.992 208.103 200.719C213.725 203.447 218.484 207.678 221.852 212.943L172.453 237.259L129.045 236.944L129.027 179.606Z" fill="#DCDDEB"/>
<path d="M283.708 179.804C273.954 175.096 265.377 180.793 256.377 186.822C247.378 192.852 239.025 200.588 228.472 202.997C221.421 204.623 213.867 203.715 207.05 206.151C193.174 211.093 185.144 228.732 170.423 229.576C162.439 230.035 155.271 225.182 148.14 221.552C141.009 217.922 135.386 214.462 129.027 219.324V304.778H283.708V179.804Z" fill="#EFF0F7"/>
<path d="M287.068 99.9307H129.027V102.995H287.068V99.9307Z" fill="#DCDDEB"/>
<path d="M287.068 168.419H129.027V171.484H287.068V168.419Z" fill="#DCDDEB"/>
<path d="M287.068 236.909H129.027V239.973H287.068V236.909Z" fill="#DCDDEB"/>
<path d="M202.452 101.458V312.946H210.266V101.458H202.452Z" fill="#DCDDEB"/>
<path d="M162.349 17.1987H158.81V101.467H162.349V17.1987Z" fill="#DCDDEB"/>
<path d="M192.887 17.1987H189.348V101.467H192.887V17.1987Z" fill="#DCDDEB"/>
<path d="M223.415 17.1987H219.876V101.467H223.415V17.1987Z" fill="#DCDDEB"/>
<path d="M253.952 17.1987H250.414V101.467H253.952V17.1987Z" fill="#DCDDEB"/>
<path d="M122.237 3.15381H115.043V315.794H122.237V3.15381Z" fill="#DCDDEB"/>
<path d="M299.444 0H115.043V8.33876H299.444V0Z" fill="#DCDDEB"/>
<path d="M304.312 317.682H109.941V325.446H304.312V317.682Z" fill="#DCDDEB"/>
<path d="M292.25 313.898L304.312 317.681H109.941L122.228 313.898H292.25Z" fill="#DCDDEB"/>
<path d="M207.66 635.707C208.304 641.004 215.388 643.314 219.767 640.911C221.928 639.624 223.58 637.633 224.446 635.272C225.311 632.91 225.338 630.323 224.521 627.944C228.38 630.806 234.548 628.163 236.15 623.625C237.752 619.088 235.516 613.864 231.802 610.804C228.806 608.338 224.146 607.12 221.13 609.566C222.638 604.363 218.519 598.441 213.173 597.453C207.826 596.464 202.188 599.961 200.077 604.977C197.965 609.993 199.099 616.039 202.344 620.41C199.172 619.067 195.198 621.367 194.241 624.676C193.284 627.986 194.98 631.701 197.778 633.72C200.693 635.63 204.228 636.356 207.66 635.749" fill="#DCDDEB"/>
</g>
<defs>
<filter id="filter0_d_1936_18168" x="120.661" y="361.46" width="521.22" height="253.272" filterUnits="userSpaceOnUse" color-interpolation-filters="sRGB">
<feFlood flood-opacity="0" result="BackgroundImageFix"/>
<feColorMatrix in="SourceAlpha" type="matrix" values="0 0 0 0 0 0 0 0 0 0 0 0 0 0 0 0 0 0 127 0" result="hardAlpha"/>
<feOffset dx="10.3953" dy="-8.31627"/>
<feComposite in2="hardAlpha" operator="out"/>
<feColorMatrix type="matrix" values="0 0 0 0 0.127552 0 0 0 0 0.123438 0 0 0 0 0.329167 0 0 0 0.06 0"/>
<feBlend mode="normal" in2="BackgroundImageFix" result="effect1_dropShadow_1936_18168"/>
<feBlend mode="normal" in="SourceGraphic" in2="effect1_dropShadow_1936_18168" result="shape"/>
</filter>
</defs>
</svg>
