<svg width="72" height="72" viewBox="0 0 72 72" fill="none" xmlns="http://www.w3.org/2000/svg">
<circle cx="36" cy="36" r="35.5" fill="white" stroke="#DCDDEB"/>
<path d="M35.3184 44.014C33.0479 41.7435 33.0479 38.0638 35.3184 35.7933C36.4528 34.6607 37.9412 34.0917 39.4279 34.0917C40.9146 34.0917 42.403 34.6589 43.5374 35.7933C43.784 36.0399 43.9901 36.3076 44.1839 36.5842C44.3776 36.3094 44.5837 36.0399 44.8303 35.7933C45.9647 34.6607 47.4531 34.0917 48.9398 34.0917C50.4265 34.0917 51.9149 34.6589 53.0493 35.7933C53.1251 35.869 53.1779 35.9589 53.2501 36.0381C55.6528 31.9533 55.1384 26.6266 51.6313 23.1196C49.551 21.041 46.8225 20 44.0958 20C41.369 20 38.6405 21.041 36.5602 23.1213C36.1093 23.5722 35.7306 24.0655 35.3765 24.571C35.0225 24.0655 34.6438 23.5722 34.1928 23.1213C32.1126 21.041 29.384 20 26.6573 20C23.9306 20 21.202 21.041 19.1218 23.1213C14.9594 27.2837 14.9594 34.0301 19.1218 38.1924C20.9308 40.0014 31.8765 49.1064 32.6357 49.8656C33.3931 50.623 34.3848 51 35.3765 51C36.3682 51 37.36 50.6213 38.1174 49.8656C38.2953 49.6877 39.0439 49.043 40.0902 48.1517C38.2055 46.5523 35.8997 44.5953 35.3184 44.014Z" fill="#0075FF"/>
<path d="M53.0495 35.7946C51.9151 34.6603 50.4267 34.0913 48.94 34.0913C47.4533 34.0913 45.9649 34.6585 44.8305 35.7929C44.5839 36.0395 44.3778 36.3072 44.1841 36.5838C43.9903 36.3072 43.7842 36.0395 43.5376 35.7929C42.4032 34.6603 40.9148 34.0913 39.4281 34.0913C37.9414 34.0913 36.453 34.6585 35.3186 35.7929C33.0481 38.0634 33.0481 41.7431 35.3186 44.0136C36.305 45.0001 42.2746 49.9656 42.6886 50.3796C43.1025 50.7935 43.6433 50.9978 44.1841 50.9978C44.7248 50.9978 45.2656 50.7917 45.6796 50.3796C46.0953 49.9656 52.0649 44.9983 53.0495 44.0136C55.32 41.7431 55.32 38.0652 53.0495 35.7946Z" fill="#123578"/>
</svg>
