<svg width="72" height="72" viewBox="0 0 72 72" fill="none" xmlns="http://www.w3.org/2000/svg">
<circle cx="36" cy="36" r="35.5" fill="white" stroke="#DCDDEB"/>
<path d="M35.6016 55.2031C46.4272 55.2031 55.2031 46.4272 55.2031 35.6016C55.2031 24.7759 46.4272 16 35.6016 16C24.7759 16 16 24.7759 16 35.6016C16 46.4272 24.7759 55.2031 35.6016 55.2031Z" fill="#0075FF"/>
<path d="M33.6414 43.4423C33.1396 43.4423 32.6378 43.2502 32.2556 42.868L26.3751 36.9875C25.6087 36.2211 25.6087 34.9823 26.3751 34.2158C27.1415 33.4494 28.3803 33.4494 29.1468 34.2158L33.6414 38.7105L42.0564 30.2955C42.8228 29.5291 44.0616 29.5291 44.828 30.2955C45.5944 31.0619 45.5944 32.3008 44.828 33.0672L35.0272 42.868C34.645 43.2502 34.1432 43.4423 33.6414 43.4423Z" fill="#EDF5FF"/>
</svg>
